<?xml version="1.0" encoding="UTF-8" standalone="no"?>
<svg
   viewBox="0 0 640 640"
   version="1.1"
   id="svg1"
   sodipodi:docname="digital-marketing-icon.svg"
   inkscape:version="1.4 (e7c3feb1, 2024-10-09)"
   xmlns:inkscape="http://www.inkscape.org/namespaces/inkscape"
   xmlns:sodipodi="http://sodipodi.sourceforge.net/DTD/sodipodi-0.dtd"
   xmlns="http://www.w3.org/2000/svg"
   xmlns:svg="http://www.w3.org/2000/svg">
  <defs
     id="defs1" />
  <sodipodi:namedview
     id="namedview1"
     pagecolor="#ffffff"
     bordercolor="#000000"
     borderopacity="0.25"
     inkscape:showpageshadow="2"
     inkscape:pageopacity="0.0"
     inkscape:pagecheckerboard="0"
     inkscape:deskcolor="#d1d1d1"
     inkscape:zoom="0.21831047"
     inkscape:cx="874.90076"
     inkscape:cy="171.77371"
     inkscape:window-width="1200"
     inkscape:window-height="646"
     inkscape:window-x="0"
     inkscape:window-y="25"
     inkscape:window-maximized="0"
     inkscape:current-layer="svg1" />
  <!--!Font Awesome Free 7.0.0 by @fontawesome - https://fontawesome.com License - https://fontawesome.com/license/free Copyright 2025 Fonticons, Inc.-->
  <path
     fill="#f42c21"
     d="M264 112L376 112C380.4 112 384 115.6 384 120L384 160L256 160L256 120C256 115.6 259.6 112 264 112zM208 120L208 160L128 160C92.7 160 64 188.7 64 224L64 320L576 320L576 224C576 188.7 547.3 160 512 160L432 160L432 120C432 89.1 406.9 64 376 64L264 64C233.1 64 208 89.1 208 120zM576 368L384 368L384 384C384 401.7 369.7 416 352 416L288 416C270.3 416 256 401.7 256 384L256 368L64 368L64 480C64 515.3 92.7 544 128 544L512 544C547.3 544 576 515.3 576 480L576 368z"
     id="path1"
     style="fill:#c41f21;fill-opacity:1.0" />
</svg>
