<?xml version="1.0" encoding="UTF-8" standalone="no"?>
<svg
   xml:space="preserve"
   viewBox="0 0 40 40"
   version="1.1"
   id="svg3"
   sodipodi:docname="facebook-logo.svg"
   inkscape:version="1.4 (e7c3feb1, 2024-10-09)"
   xmlns:inkscape="http://www.inkscape.org/namespaces/inkscape"
   xmlns:sodipodi="http://sodipodi.sourceforge.net/DTD/sodipodi-0.dtd"
   xmlns="http://www.w3.org/2000/svg"
   xmlns:svg="http://www.w3.org/2000/svg"><defs
   id="defs3" /><sodipodi:namedview
   id="namedview3"
   pagecolor="#ffffff"
   bordercolor="#000000"
   borderopacity="0.25"
   inkscape:showpageshadow="2"
   inkscape:pageopacity="0.0"
   inkscape:pagecheckerboard="0"
   inkscape:deskcolor="#d1d1d1"
   inkscape:zoom="0.65"
   inkscape:cx="19.230769"
   inkscape:cy="19.230769"
   inkscape:window-width="1200"
   inkscape:window-height="720"
   inkscape:window-x="0"
   inkscape:window-y="25"
   inkscape:window-maximized="0"
   inkscape:current-layer="svg3" />
  <linearGradient
   id="a"
   x1="-277.375"
   x2="-277.375"
   y1="406.6018"
   y2="407.5726"
   gradientTransform="matrix(40 0 0 -39.7778 11115.001 16212.334)"
   gradientUnits="userSpaceOnUse">
    <stop
   offset="0"
   stop-color="#0062e0"
   id="stop1" />
    <stop
   offset="1"
   stop-color="#19afff"
   id="stop2" />
  </linearGradient>
  <path
   fill="url(#a)"
   d="M16.7 39.8C7.2 38.1 0 29.9 0 20 0 9 9 0 20 0s20 9 20 20c0 9.9-7.2 18.1-16.7 19.8l-1.1-.9h-4.4l-1.1.9z"
   id="path2"
   style="fill:#c52f21&#10;" />
  <path
   fill="#fff"
   d="m27.8 25.6.9-5.6h-5.3v-3.9c0-1.6.6-2.8 3-2.8H29V8.2c-1.4-.2-3-.4-4.4-.4-4.6 0-7.8 2.8-7.8 7.8V20h-5v5.6h5v14.1c1.1.2 2.2.3 3.3.3 1.1 0 2.2-.1 3.3-.3V25.6h4.4z"
   id="path3" />
</svg>
