<?xml version="1.0" encoding="UTF-8" standalone="no"?>
<svg
   inkscape:version="1.4 (e7c3feb1, 2024-10-09)"
   sodipodi:docname="google-analytics-icon.svg"
   id="svg4243"
   version="1.1"
   viewBox="0 0 200 200"
   height="200pt"
   width="200pt"
   xmlns:inkscape="http://www.inkscape.org/namespaces/inkscape"
   xmlns:sodipodi="http://sodipodi.sourceforge.net/DTD/sodipodi-0.dtd"
   xmlns="http://www.w3.org/2000/svg"
   xmlns:svg="http://www.w3.org/2000/svg"
   xmlns:rdf="http://www.w3.org/1999/02/22-rdf-syntax-ns#"
   xmlns:cc="http://creativecommons.org/ns#"
   xmlns:dc="http://purl.org/dc/elements/1.1/">
  <metadata
     id="metadata4247">
    <rdf:RDF>
      <cc:Work
         rdf:about="">
        <dc:format>image/svg+xml</dc:format>
        <dc:type
           rdf:resource="http://purl.org/dc/dcmitype/StillImage" />
      </cc:Work>
    </rdf:RDF>
  </metadata>
  <sodipodi:namedview
     inkscape:current-layer="svg4243"
     inkscape:window-maximized="0"
     inkscape:window-y="25"
     inkscape:window-x="0"
     inkscape:cy="183.64757"
     inkscape:cx="115.76464"
     inkscape:zoom="0.82494966"
     showgrid="false"
     id="namedview4245"
     inkscape:window-height="900"
     inkscape:window-width="1440"
     inkscape:pageshadow="2"
     inkscape:pageopacity="0"
     guidetolerance="10"
     gridtolerance="10"
     objecttolerance="10"
     borderopacity="1"
     bordercolor="#666666"
     pagecolor="#ffffff"
     inkscape:showpageshadow="2"
     inkscape:pagecheckerboard="0"
     inkscape:deskcolor="#d1d1d1"
     inkscape:document-units="pt" />
  <defs
     id="defs1428" />
  <g
     style="stroke-width:0.281805"
     transform="matrix(3.5485559,0,0,3.5485559,-140.54887,-315.13787)"
     id="g6628">
    <path
       id="path3806"
       d="m 76.058007,100.6907 v 32.10778 c 0,3.5954 2.478016,5.59454 5.108055,5.59454 2.432408,0 5.108056,-1.70269 5.108056,-5.59454 v -31.86454 c 0,-3.291347 -2.432407,-5.351293 -5.108056,-5.351293 -2.675648,0 -5.108055,2.272782 -5.108055,5.108053 z m 0,0"
       style="fill:#c52f21&#10;;fill-opacity:1;fill-rule:nonzero;stroke:none;stroke-width:0.281805" />
    <path
       id="path3808"
       d="m 62.679765,116.98783 v 15.81065 c 0,3.5954 2.478016,5.59454 5.108056,5.59454 2.432407,0 5.108056,-1.70269 5.108056,-5.59454 v -15.56741 c 0,-3.29135 -2.432408,-5.35129 -5.108056,-5.35129 -2.675648,0 -5.108056,2.27278 -5.108056,5.10805 z m 0,0"
       style="fill:#c52f21&#10;;fill-opacity:1;fill-rule:nonzero;stroke:none;stroke-width:0.281805" />
    <path
       id="path3810"
       d="m 59.517636,133.28496 c 0,2.82008 -2.287983,5.10806 -5.108056,5.10806 -2.820073,0 -5.108056,-2.28798 -5.108056,-5.10806 0,-2.82007 2.287983,-5.10805 5.108056,-5.10805 2.820073,0 5.108056,2.28798 5.108056,5.10805"
       style="fill:#c52f21&#10;;fill-opacity:1;fill-rule:nonzero;stroke:none;stroke-width:0.281805" />
  </g>
</svg>
