<?xml version="1.0" encoding="UTF-8" standalone="no"?>
<svg
   viewBox="0 0 2017 1816"
   version="1.1"
   id="svg7"
   sodipodi:docname="google-maps-logo.svg"
   inkscape:version="1.4 (e7c3feb1, 2024-10-09)"
   xmlns:inkscape="http://www.inkscape.org/namespaces/inkscape"
   xmlns:sodipodi="http://sodipodi.sourceforge.net/DTD/sodipodi-0.dtd"
   xmlns="http://www.w3.org/2000/svg"
   xmlns:svg="http://www.w3.org/2000/svg">
  <defs
     id="defs7" />
  <sodipodi:namedview
     id="namedview7"
     pagecolor="#ffffff"
     bordercolor="#000000"
     borderopacity="0.25"
     inkscape:showpageshadow="2"
     inkscape:pageopacity="0.0"
     inkscape:pagecheckerboard="0"
     inkscape:deskcolor="#d1d1d1"
     inkscape:zoom="0.36032385"
     inkscape:cx="903.35403"
     inkscape:cy="1029.6293"
     inkscape:window-width="1680"
     inkscape:window-height="1050"
     inkscape:window-x="0"
     inkscape:window-y="0"
     inkscape:window-maximized="0"
     inkscape:current-layer="g7" />
  <g
     id="g7"
     transform="translate(-14.8,293.9)">
    <path
       d="m 831,907.9 c 37.9,47.4 76.5,107 96.7,143 24.6,46.8 34.8,78.4 53.1,135 10.7,31 20.9,40.4 42.3,40.4 23.4,0 34.1,-15.8 42.3,-40.4 17.1,-53.1 30.3,-93.5 51.2,-132 80.6,-152 212,-260 286,-408 0,0 48.7,-90.4 48.7,-217 0,-118 -48,-200 -48,-200 l -572,680 z"
       fill="#34a853"
       id="path3"
       style="fill:#c52f21" />
    <path
       d="m 637,631.9 c 46.1,105 134,197 194,278 l 318,-377 c 0,0 -44.9,58.8 -126,58.8 -90.4,0 -164,-72 -164,-163 0,-62.6 37.3,-106 37.3,-106 -234,34.8 -221,91.5 -260,309 z"
       fill="#fbbc04"
       id="path4"
       style="fill:#c52f21&#10;" />
    <path
       d="m 1153,19.6 c 106,34.1 196,106 250,211 l -254,303 c 0,0 37.3,-43.6 37.3,-106 0,-92.9 -78.4,-163 -163,-163 -80.3,0 -126,58.1 -126,58.1 19.5,-44.4 221,-288 256,-303 z"
       fill="#4285f4"
       id="path5"
       style="fill:#c52f21&#10;" />
    <path
       d="m 695,152.9 c 63.2,-75.2 174,-153 327,-153 73.9,0 130,19.6 130,19.6 l -255,303 c -17.2,-9.33 -185,-140 -202,-170 z"
       fill="#1a73e8"
       id="path6"
       style="fill:#c52f21&#10;" />
    <path
       d="m 637,631.9 c 0,0 -41.7,-82.8 -41.7,-202 0,-113 44.2,-212 100,-276 l 202,170 -260,308 z"
       fill="#ea4335"
       id="path7"
       style="fill:#c52f21&#10;" />
  </g>
</svg>
