<svg xmlns="http://www.w3.org/2000/svg" class="rounded-xl" viewBox="0 0 667.04 667.04"><rect width="667.04" height="667.04" fill="#ffffff" id="bg" class="bg"/><g><g transform="translate(0.00,&#10;                                0.00) rotate(270, 16.676, 16.676)"><svg xmlns="http://www.w3.org/2000/svg" id="Layer_1" data-name="Layer 1" viewBox="0 0 100 100" width="33.352" height="33.352"><polygon points="0 94.265 100 94.265 50 5.735 0 94.265" fill="#000000"/></svg></g><g transform="translate(33.35,&#10;                                0.00) rotate(90, 16.676, 16.676)"><svg xmlns="http://www.w3.org/2000/svg" id="Layer_1" data-name="Layer 1" viewBox="0 0 100 100" width="33.352" height="33.352"><polygon points="100 50 50 0 0 50 100 50" fill="#000000"/><polygon points="100 100 50 50 0 100 100 100" fill="#000000"/></svg></g><g transform="translate(0.00,&#10;                                33.35) rotate(180, 16.676, 16.676)"><svg xmlns="http://www.w3.org/2000/svg" id="Layer_1" data-name="Layer 1" viewBox="0 0 100 100" width="33.352" height="33.352"><polygon points="100 100 50 50 0 100 100 100" fill="#000000"/></svg></g><g transform="translate(100.06,&#10;                                0.00) rotate(270, 16.676, 16.676)"><svg xmlns="http://www.w3.org/2000/svg" id="Layer_1" data-name="Layer 1" viewBox="0 0 100 100" width="33.352" height="33.352"><polygon points="100 0 50 50 0 0 100 0" fill="#000000"/><polygon points="100 100 50 50 0 100 100 100" fill="#000000"/></svg></g><g transform="translate(66.70,&#10;                                33.35) rotate(180, 16.676, 16.676)"><svg xmlns="http://www.w3.org/2000/svg" id="Layer_1" data-name="Layer 1" viewBox="0 0 100 100" width="33.352" height="33.352"><polygon points="100 50 50 0 0 50 100 50" fill="#000000"/><polygon points="100 100 50 50 0 100 100 100" fill="#000000"/></svg></g><g transform="translate(100.06,&#10;                                33.35) rotate(180, 16.676, 16.676)"><svg xmlns="http://www.w3.org/2000/svg" id="Layer_1" data-name="Layer 1" viewBox="0 0 100 100" width="33.352" height="33.352"><polygon points="100 100 50 50 0 100 100 100" fill="#000000"/></svg></g><g transform="translate(166.76,&#10;                                0.00) rotate(0, 16.676, 16.676)"><svg xmlns="http://www.w3.org/2000/svg" id="Layer_1" data-name="Layer 1" viewBox="0 0 100 100" width="33.352" height="33.352"><polygon points="100 0 50 50 0 0 100 0" fill="#000000"/><polygon points="100 100 50 50 0 100 100 100" fill="#000000"/></svg></g><g transform="translate(133.41,&#10;                                33.35) rotate(270, 16.676, 16.676)"><svg xmlns="http://www.w3.org/2000/svg" id="Layer_1" data-name="Layer 1" viewBox="0 0 100 100" width="33.352" height="33.352"><polygon points="100 50 50 0 0 50 100 50" fill="#000000"/><polygon points="100 100 50 50 0 100 100 100" fill="#000000"/></svg></g><g transform="translate(166.76,&#10;                                33.35) rotate(270, 16.676, 16.676)"><svg xmlns="http://www.w3.org/2000/svg" id="Layer_1" data-name="Layer 1" viewBox="0 0 100 100" width="33.352" height="33.352"><polygon points="100 0 50 50 0 0 100 0" fill="#000000"/><polygon points="100 100 50 50 0 100 100 100" fill="#000000"/></svg></g><g transform="translate(233.46,&#10;                                0.00) rotate(0, 16.676, 16.676)"><svg xmlns="http://www.w3.org/2000/svg" id="Layer_1" data-name="Layer 1" viewBox="0 0 100 100" width="33.352" height="33.352"><polygon points="100 0 50 50 0 0 100 0" fill="#000000"/><polygon points="100 100 50 50 0 100 100 100" fill="#000000"/></svg></g><g transform="translate(200.11,&#10;                                33.35) rotate(180, 16.676, 16.676)"><svg xmlns="http://www.w3.org/2000/svg" id="Layer_1" data-name="Layer 1" viewBox="0 0 100 100" width="33.352" height="33.352"><polygon points="100 50 50 0 0 50 100 50" fill="#000000"/><polygon points="100 100 50 50 0 100 100 100" fill="#000000"/></svg></g><g transform="translate(266.82,&#10;                                0.00) rotate(180, 16.676, 16.676)"><svg xmlns="http://www.w3.org/2000/svg" id="Layer_1" data-name="Layer 1" viewBox="0 0 100 100" width="33.352" height="33.352"><polygon points="100 50 50 0 0 50 100 50" fill="#000000"/><polygon points="100 100 50 50 0 100 100 100" fill="#000000"/></svg></g><g transform="translate(300.17,&#10;                                0.00) rotate(0, 16.676, 16.676)"><svg xmlns="http://www.w3.org/2000/svg" id="Layer_1" data-name="Layer 1" viewBox="0 0 100 100" width="33.352" height="33.352"><polygon points="100 0 50 50 0 0 100 0" fill="#000000"/><polygon points="100 100 50 50 0 100 100 100" fill="#000000"/></svg></g><g transform="translate(266.82,&#10;                                33.35) rotate(0, 16.676, 16.676)"><svg xmlns="http://www.w3.org/2000/svg" id="Layer_1" data-name="Layer 1" viewBox="0 0 100 100" width="33.352" height="33.352"><polygon points="100 50 50 0 0 50 100 50" fill="#000000"/><polygon points="100 100 50 50 0 100 100 100" fill="#000000"/></svg></g><g transform="translate(333.52,&#10;                                0.00) rotate(0, 16.676, 16.676)"><svg xmlns="http://www.w3.org/2000/svg" id="Layer_1" data-name="Layer 1" viewBox="0 0 100 100" width="33.352" height="33.352"><polygon points="100 50 50 0 0 50 100 50" fill="#000000"/><polygon points="100 100 50 50 0 100 100 100" fill="#000000"/></svg></g><g transform="translate(366.87,&#10;                                0.00) rotate(0, 16.676, 16.676)"><svg xmlns="http://www.w3.org/2000/svg" id="Layer_1" data-name="Layer 1" viewBox="0 0 100 100" width="33.352" height="33.352"><polygon points="100 50 50 0 0 50 100 50" fill="#000000"/><polygon points="100 100 50 50 0 100 100 100" fill="#000000"/></svg></g><g transform="translate(400.22,&#10;                                0.00) rotate(90, 16.676, 16.676)"><svg xmlns="http://www.w3.org/2000/svg" id="Layer_1" data-name="Layer 1" viewBox="0 0 100 100" width="33.352" height="33.352"><polygon points="100 50 50 0 0 50 100 50" fill="#000000"/><polygon points="100 100 50 50 0 100 100 100" fill="#000000"/></svg></g><g transform="translate(433.58,&#10;                                0.00) rotate(0, 16.676, 16.676)"><svg xmlns="http://www.w3.org/2000/svg" id="Layer_1" data-name="Layer 1" viewBox="0 0 100 100" width="33.352" height="33.352"><polygon points="100 50 50 0 0 50 100 50" fill="#000000"/><polygon points="100 100 50 50 0 100 100 100" fill="#000000"/></svg></g><g transform="translate(466.93,&#10;                                0.00) rotate(90, 16.676, 16.676)"><svg xmlns="http://www.w3.org/2000/svg" id="Layer_1" data-name="Layer 1" viewBox="0 0 100 100" width="33.352" height="33.352"><polygon points="100 50 50 0 0 50 100 50" fill="#000000"/><polygon points="100 100 50 50 0 100 100 100" fill="#000000"/></svg></g><g transform="translate(500.28,&#10;                                33.35) rotate(0, 16.676, 16.676)"><svg xmlns="http://www.w3.org/2000/svg" id="Layer_1" data-name="Layer 1" viewBox="0 0 100 100" width="33.352" height="33.352"><polygon points="100 100 50 50 0 100 100 100" fill="#000000"/></svg></g><g transform="translate(566.98,&#10;                                0.00) rotate(0, 16.676, 16.676)"><svg xmlns="http://www.w3.org/2000/svg" id="Layer_1" data-name="Layer 1" viewBox="0 0 100 100" width="33.352" height="33.352"><polygon points="100 50 50 0 0 50 100 50" fill="#000000"/><polygon points="100 100 50 50 0 100 100 100" fill="#000000"/></svg></g><g transform="translate(533.63,&#10;                                33.35) rotate(270, 16.676, 16.676)"><svg xmlns="http://www.w3.org/2000/svg" id="Layer_1" data-name="Layer 1" viewBox="0 0 100 100" width="33.352" height="33.352"><polygon points="100 50 50 0 0 50 100 50" fill="#000000"/><polygon points="100 100 50 50 0 100 100 100" fill="#000000"/></svg></g></g><g><g transform="translate(0.00,&#10;                                100.06) rotate(90, 16.676, 16.676)"><svg xmlns="http://www.w3.org/2000/svg" id="Layer_1" data-name="Layer 1" viewBox="0 0 100 100" width="33.352" height="33.352"><polygon points="100 50 50 0 0 50 100 50" fill="#000000"/><polygon points="100 100 50 50 0 100 100 100" fill="#000000"/></svg></g><g transform="translate(133.41,&#10;                                100.06) rotate(270, 16.676, 16.676)"><svg xmlns="http://www.w3.org/2000/svg" id="Layer_1" data-name="Layer 1" viewBox="0 0 100 100" width="33.352" height="33.352"><polygon points="100 50 50 0 0 50 100 50" fill="#000000"/><polygon points="100 100 50 50 0 100 100 100" fill="#000000"/></svg></g><g transform="translate(233.46,&#10;                                66.70) rotate(180, 16.676, 16.676)"><svg xmlns="http://www.w3.org/2000/svg" id="Layer_1" data-name="Layer 1" viewBox="0 0 100 100" width="33.352" height="33.352"><polygon points="100 0 50 50 0 0 100 0" fill="#000000"/><polygon points="100 100 50 50 0 100 100 100" fill="#000000"/></svg></g><g transform="translate(266.82,&#10;                                66.70) rotate(180, 16.676, 16.676)"><svg xmlns="http://www.w3.org/2000/svg" id="Layer_1" data-name="Layer 1" viewBox="0 0 100 100" width="33.352" height="33.352"><polygon points="0 94.265 100 94.265 50 5.735 0 94.265" fill="#000000"/></svg></g><g transform="translate(300.17,&#10;                                66.70) rotate(270, 16.676, 16.676)"><svg xmlns="http://www.w3.org/2000/svg" id="Layer_1" data-name="Layer 1" viewBox="0 0 100 100" width="33.352" height="33.352"><polygon points="100 0 50 50 0 0 100 0" fill="#000000"/><polygon points="100 100 50 50 0 100 100 100" fill="#000000"/></svg></g><g transform="translate(266.82,&#10;                                100.06) rotate(0, 16.676, 16.676)"><svg xmlns="http://www.w3.org/2000/svg" id="Layer_1" data-name="Layer 1" viewBox="0 0 100 100" width="33.352" height="33.352"><polygon points="100 50 50 0 0 50 100 50" fill="#000000"/><polygon points="100 100 50 50 0 100 100 100" fill="#000000"/></svg></g><g transform="translate(300.17,&#10;                                100.06) rotate(90, 16.676, 16.676)"><svg xmlns="http://www.w3.org/2000/svg" id="Layer_1" data-name="Layer 1" viewBox="0 0 100 100" width="33.352" height="33.352"><polygon points="100 100 50 50 0 100 100 100" fill="#000000"/></svg></g><g transform="translate(333.52,&#10;                                100.06) rotate(270, 16.676, 16.676)"><svg xmlns="http://www.w3.org/2000/svg" id="Layer_1" data-name="Layer 1" viewBox="0 0 100 100" width="33.352" height="33.352"><polygon points="100 50 50 0 0 50 100 50" fill="#000000"/><polygon points="100 100 50 50 0 100 100 100" fill="#000000"/></svg></g><g transform="translate(433.58,&#10;                                66.70) rotate(180, 16.676, 16.676)"><svg xmlns="http://www.w3.org/2000/svg" id="Layer_1" data-name="Layer 1" viewBox="0 0 100 100" width="33.352" height="33.352"><polygon points="100 50 50 0 0 50 100 50" fill="#000000"/><polygon points="100 100 50 50 0 100 100 100" fill="#000000"/></svg></g><g transform="translate(400.22,&#10;                                100.06) rotate(180, 16.676, 16.676)"><svg xmlns="http://www.w3.org/2000/svg" id="Layer_1" data-name="Layer 1" viewBox="0 0 100 100" width="33.352" height="33.352"><polygon points="0 94.265 100 94.265 50 5.735 0 94.265" fill="#000000"/></svg></g><g transform="translate(500.28,&#10;                                66.70) rotate(0, 16.676, 16.676)"><svg xmlns="http://www.w3.org/2000/svg" id="Layer_1" data-name="Layer 1" viewBox="0 0 100 100" width="33.352" height="33.352"><polygon points="100 0 50 50 0 0 100 0" fill="#000000"/><polygon points="100 100 50 50 0 100 100 100" fill="#000000"/></svg></g><g transform="translate(500.28,&#10;                                100.06) rotate(180, 16.676, 16.676)"><svg xmlns="http://www.w3.org/2000/svg" id="Layer_1" data-name="Layer 1" viewBox="0 0 100 100" width="33.352" height="33.352"><polygon points="100 100 50 50 0 100 100 100" fill="#000000"/></svg></g><g transform="translate(533.63,&#10;                                66.70) rotate(90, 16.676, 16.676)"><svg xmlns="http://www.w3.org/2000/svg" id="Layer_1" data-name="Layer 1" viewBox="0 0 100 100" width="33.352" height="33.352"><polygon points="0 94.265 100 94.265 50 5.735 0 94.265" fill="#000000"/></svg></g><g transform="translate(533.63,&#10;                                100.06) rotate(270, 16.676, 16.676)"><svg xmlns="http://www.w3.org/2000/svg" id="Layer_1" data-name="Layer 1" viewBox="0 0 100 100" width="33.352" height="33.352"><polygon points="100 100 50 50 0 100 100 100" fill="#000000"/></svg></g><g transform="translate(600.34,&#10;                                66.70) rotate(90, 16.676, 16.676)"><svg xmlns="http://www.w3.org/2000/svg" id="Layer_1" data-name="Layer 1" viewBox="0 0 100 100" width="33.352" height="33.352"><polygon points="0 94.265 100 94.265 50 5.735 0 94.265" fill="#000000"/></svg></g><g transform="translate(633.69,&#10;                                66.70) rotate(180, 16.676, 16.676)"><svg xmlns="http://www.w3.org/2000/svg" id="Layer_1" data-name="Layer 1" viewBox="0 0 100 100" width="33.352" height="33.352"><polygon points="100 0 50 50 0 0 100 0" fill="#000000"/><polygon points="100 100 50 50 0 100 100 100" fill="#000000"/></svg></g><g transform="translate(600.34,&#10;                                100.06) rotate(0, 16.676, 16.676)"><svg xmlns="http://www.w3.org/2000/svg" id="Layer_1" data-name="Layer 1" viewBox="0 0 100 100" width="33.352" height="33.352"><polygon points="0 94.265 100 94.265 50 5.735 0 94.265" fill="#000000"/></svg></g></g><g><g transform="translate(0.00,&#10;                                133.41) rotate(90, 16.676, 16.676)"><svg xmlns="http://www.w3.org/2000/svg" id="Layer_1" data-name="Layer 1" viewBox="0 0 100 100" width="33.352" height="33.352"><polygon points="100 50 50 0 0 50 100 50" fill="#000000"/><polygon points="100 100 50 50 0 100 100 100" fill="#000000"/></svg></g><g transform="translate(33.35,&#10;                                133.41) rotate(0, 16.676, 16.676)"><svg xmlns="http://www.w3.org/2000/svg" id="Layer_1" data-name="Layer 1" viewBox="0 0 100 100" width="33.352" height="33.352"><polygon points="100 0 50 50 0 0 100 0" fill="#000000"/><polygon points="100 100 50 50 0 100 100 100" fill="#000000"/></svg></g><g transform="translate(0.00,&#10;                                166.76) rotate(0, 16.676, 16.676)"><svg xmlns="http://www.w3.org/2000/svg" id="Layer_1" data-name="Layer 1" viewBox="0 0 100 100" width="33.352" height="33.352"><polygon points="100 100 50 50 0 100 100 100" fill="#000000"/></svg></g><g transform="translate(33.35,&#10;                                166.76) rotate(0, 16.676, 16.676)"><svg xmlns="http://www.w3.org/2000/svg" id="Layer_1" data-name="Layer 1" viewBox="0 0 100 100" width="33.352" height="33.352"><polygon points="100 0 50 50 0 0 100 0" fill="#000000"/><polygon points="100 100 50 50 0 100 100 100" fill="#000000"/></svg></g><g transform="translate(66.70,&#10;                                133.41) rotate(0, 16.676, 16.676)"><svg xmlns="http://www.w3.org/2000/svg" id="Layer_1" data-name="Layer 1" viewBox="0 0 100 100" width="33.352" height="33.352"><polygon points="100 50 50 0 0 50 100 50" fill="#000000"/><polygon points="100 100 50 50 0 100 100 100" fill="#000000"/></svg></g><g transform="translate(100.06,&#10;                                133.41) rotate(180, 16.676, 16.676)"><svg xmlns="http://www.w3.org/2000/svg" id="Layer_1" data-name="Layer 1" viewBox="0 0 100 100" width="33.352" height="33.352"><polygon points="100 0 50 50 0 0 100 0" fill="#000000"/><polygon points="100 100 50 50 0 100 100 100" fill="#000000"/></svg></g><g transform="translate(66.70,&#10;                                166.76) rotate(0, 16.676, 16.676)"><svg xmlns="http://www.w3.org/2000/svg" id="Layer_1" data-name="Layer 1" viewBox="0 0 100 100" width="33.352" height="33.352"><polygon points="0 94.265 100 94.265 50 5.735 0 94.265" fill="#000000"/></svg></g><g transform="translate(133.41,&#10;                                133.41) rotate(90, 16.676, 16.676)"><svg xmlns="http://www.w3.org/2000/svg" id="Layer_1" data-name="Layer 1" viewBox="0 0 100 100" width="33.352" height="33.352"><polygon points="100 50 50 0 0 50 100 50" fill="#000000"/><polygon points="100 100 50 50 0 100 100 100" fill="#000000"/></svg></g><g transform="translate(166.76,&#10;                                133.41) rotate(180, 16.676, 16.676)"><svg xmlns="http://www.w3.org/2000/svg" id="Layer_1" data-name="Layer 1" viewBox="0 0 100 100" width="33.352" height="33.352"><polygon points="100 0 50 50 0 0 100 0" fill="#000000"/><polygon points="100 100 50 50 0 100 100 100" fill="#000000"/></svg></g><g transform="translate(133.41,&#10;                                166.76) rotate(90, 16.676, 16.676)"><svg xmlns="http://www.w3.org/2000/svg" id="Layer_1" data-name="Layer 1" viewBox="0 0 100 100" width="33.352" height="33.352"><polygon points="100 100 50 50 0 100 100 100" fill="#000000"/></svg></g><g transform="translate(200.11,&#10;                                133.41) rotate(90, 16.676, 16.676)"><svg xmlns="http://www.w3.org/2000/svg" id="Layer_1" data-name="Layer 1" viewBox="0 0 100 100" width="33.352" height="33.352"><polygon points="0 94.265 100 94.265 50 5.735 0 94.265" fill="#000000"/></svg></g><g transform="translate(233.46,&#10;                                133.41) rotate(90, 16.676, 16.676)"><svg xmlns="http://www.w3.org/2000/svg" id="Layer_1" data-name="Layer 1" viewBox="0 0 100 100" width="33.352" height="33.352"><polygon points="100 100 50 50 0 100 100 100" fill="#000000"/></svg></g><g transform="translate(200.11,&#10;                                166.76) rotate(180, 16.676, 16.676)"><svg xmlns="http://www.w3.org/2000/svg" id="Layer_1" data-name="Layer 1" viewBox="0 0 100 100" width="33.352" height="33.352"><polygon points="0 94.265 100 94.265 50 5.735 0 94.265" fill="#000000"/></svg></g><g transform="translate(266.82,&#10;                                133.41) rotate(270, 16.676, 16.676)"><svg xmlns="http://www.w3.org/2000/svg" id="Layer_1" data-name="Layer 1" viewBox="0 0 100 100" width="33.352" height="33.352"><polygon points="100 50 50 0 0 50 100 50" fill="#000000"/><polygon points="100 100 50 50 0 100 100 100" fill="#000000"/></svg></g><g transform="translate(300.17,&#10;                                133.41) rotate(0, 16.676, 16.676)"><svg xmlns="http://www.w3.org/2000/svg" id="Layer_1" data-name="Layer 1" viewBox="0 0 100 100" width="33.352" height="33.352"><polygon points="100 100 50 50 0 100 100 100" fill="#000000"/></svg></g><g transform="translate(266.82,&#10;                                166.76) rotate(0, 16.676, 16.676)"><svg xmlns="http://www.w3.org/2000/svg" id="Layer_1" data-name="Layer 1" viewBox="0 0 100 100" width="33.352" height="33.352"><polygon points="100 50 50 0 0 50 100 50" fill="#000000"/><polygon points="100 100 50 50 0 100 100 100" fill="#000000"/></svg></g><g transform="translate(333.52,&#10;                                133.41) rotate(180, 16.676, 16.676)"><svg xmlns="http://www.w3.org/2000/svg" id="Layer_1" data-name="Layer 1" viewBox="0 0 100 100" width="33.352" height="33.352"><polygon points="100 50 50 0 0 50 100 50" fill="#000000"/><polygon points="100 100 50 50 0 100 100 100" fill="#000000"/></svg></g><g transform="translate(333.52,&#10;                                166.76) rotate(180, 16.676, 16.676)"><svg xmlns="http://www.w3.org/2000/svg" id="Layer_1" data-name="Layer 1" viewBox="0 0 100 100" width="33.352" height="33.352"><polygon points="0 94.265 100 94.265 50 5.735 0 94.265" fill="#000000"/></svg></g><g transform="translate(400.22,&#10;                                133.41) rotate(0, 16.676, 16.676)"><svg xmlns="http://www.w3.org/2000/svg" id="Layer_1" data-name="Layer 1" viewBox="0 0 100 100" width="33.352" height="33.352"><polygon points="100 50 50 0 0 50 100 50" fill="#000000"/><polygon points="100 100 50 50 0 100 100 100" fill="#000000"/></svg></g><g transform="translate(400.22,&#10;                                166.76) rotate(270, 16.676, 16.676)"><svg xmlns="http://www.w3.org/2000/svg" id="Layer_1" data-name="Layer 1" viewBox="0 0 100 100" width="33.352" height="33.352"><polygon points="0 94.265 100 94.265 50 5.735 0 94.265" fill="#000000"/></svg></g><g transform="translate(433.58,&#10;                                166.76) rotate(270, 16.676, 16.676)"><svg xmlns="http://www.w3.org/2000/svg" id="Layer_1" data-name="Layer 1" viewBox="0 0 100 100" width="33.352" height="33.352"><polygon points="100 100 50 50 0 100 100 100" fill="#000000"/></svg></g><g transform="translate(500.28,&#10;                                133.41) rotate(0, 16.676, 16.676)"><svg xmlns="http://www.w3.org/2000/svg" id="Layer_1" data-name="Layer 1" viewBox="0 0 100 100" width="33.352" height="33.352"><polygon points="100 0 50 50 0 0 100 0" fill="#000000"/><polygon points="100 100 50 50 0 100 100 100" fill="#000000"/></svg></g><g transform="translate(466.93,&#10;                                166.76) rotate(180, 16.676, 16.676)"><svg xmlns="http://www.w3.org/2000/svg" id="Layer_1" data-name="Layer 1" viewBox="0 0 100 100" width="33.352" height="33.352"><polygon points="100 50 50 0 0 50 100 50" fill="#000000"/><polygon points="100 100 50 50 0 100 100 100" fill="#000000"/></svg></g><g transform="translate(533.63,&#10;                                133.41) rotate(270, 16.676, 16.676)"><svg xmlns="http://www.w3.org/2000/svg" id="Layer_1" data-name="Layer 1" viewBox="0 0 100 100" width="33.352" height="33.352"><polygon points="100 50 50 0 0 50 100 50" fill="#000000"/><polygon points="100 100 50 50 0 100 100 100" fill="#000000"/></svg></g><g transform="translate(566.98,&#10;                                133.41) rotate(270, 16.676, 16.676)"><svg xmlns="http://www.w3.org/2000/svg" id="Layer_1" data-name="Layer 1" viewBox="0 0 100 100" width="33.352" height="33.352"><polygon points="100 0 50 50 0 0 100 0" fill="#000000"/><polygon points="100 100 50 50 0 100 100 100" fill="#000000"/></svg></g><g transform="translate(533.63,&#10;                                166.76) rotate(180, 16.676, 16.676)"><svg xmlns="http://www.w3.org/2000/svg" id="Layer_1" data-name="Layer 1" viewBox="0 0 100 100" width="33.352" height="33.352"><polygon points="0 94.265 100 94.265 50 5.735 0 94.265" fill="#000000"/></svg></g><g transform="translate(600.34,&#10;                                133.41) rotate(180, 16.676, 16.676)"><svg xmlns="http://www.w3.org/2000/svg" id="Layer_1" data-name="Layer 1" viewBox="0 0 100 100" width="33.352" height="33.352"><polygon points="100 50 50 0 0 50 100 50" fill="#000000"/><polygon points="100 100 50 50 0 100 100 100" fill="#000000"/></svg></g><g transform="translate(633.69,&#10;                                133.41) rotate(180, 16.676, 16.676)"><svg xmlns="http://www.w3.org/2000/svg" id="Layer_1" data-name="Layer 1" viewBox="0 0 100 100" width="33.352" height="33.352"><polygon points="100 0 50 50 0 0 100 0" fill="#000000"/><polygon points="100 100 50 50 0 100 100 100" fill="#000000"/></svg></g><g transform="translate(600.34,&#10;                                166.76) rotate(0, 16.676, 16.676)"><svg xmlns="http://www.w3.org/2000/svg" id="Layer_1" data-name="Layer 1" viewBox="0 0 100 100" width="33.352" height="33.352"><polygon points="0 94.265 100 94.265 50 5.735 0 94.265" fill="#000000"/></svg></g><g transform="translate(633.69,&#10;                                166.76) rotate(90, 16.676, 16.676)"><svg xmlns="http://www.w3.org/2000/svg" id="Layer_1" data-name="Layer 1" viewBox="0 0 100 100" width="33.352" height="33.352"><polygon points="100 100 50 50 0 100 100 100" fill="#000000"/></svg></g></g><g><g transform="translate(0.00,&#10;                                200.11) rotate(0, 16.676, 16.676)"><svg xmlns="http://www.w3.org/2000/svg" id="Layer_1" data-name="Layer 1" viewBox="0 0 100 100" width="33.352" height="33.352"><polygon points="100 50 50 0 0 50 100 50" fill="#000000"/><polygon points="100 100 50 50 0 100 100 100" fill="#000000"/></svg></g><g transform="translate(33.35,&#10;                                200.11) rotate(180, 16.676, 16.676)"><svg xmlns="http://www.w3.org/2000/svg" id="Layer_1" data-name="Layer 1" viewBox="0 0 100 100" width="33.352" height="33.352"><polygon points="100 100 50 50 0 100 100 100" fill="#000000"/></svg></g><g transform="translate(0.00,&#10;                                233.46) rotate(90, 16.676, 16.676)"><svg xmlns="http://www.w3.org/2000/svg" id="Layer_1" data-name="Layer 1" viewBox="0 0 100 100" width="33.352" height="33.352"><polygon points="100 100 50 50 0 100 100 100" fill="#000000"/></svg></g><g transform="translate(66.70,&#10;                                200.11) rotate(0, 16.676, 16.676)"><svg xmlns="http://www.w3.org/2000/svg" id="Layer_1" data-name="Layer 1" viewBox="0 0 100 100" width="33.352" height="33.352"><polygon points="100 50 50 0 0 50 100 50" fill="#000000"/><polygon points="100 100 50 50 0 100 100 100" fill="#000000"/></svg></g><g transform="translate(100.06,&#10;                                200.11) rotate(270, 16.676, 16.676)"><svg xmlns="http://www.w3.org/2000/svg" id="Layer_1" data-name="Layer 1" viewBox="0 0 100 100" width="33.352" height="33.352"><polygon points="100 0 50 50 0 0 100 0" fill="#000000"/><polygon points="100 100 50 50 0 100 100 100" fill="#000000"/></svg></g><g transform="translate(66.70,&#10;                                233.46) rotate(270, 16.676, 16.676)"><svg xmlns="http://www.w3.org/2000/svg" id="Layer_1" data-name="Layer 1" viewBox="0 0 100 100" width="33.352" height="33.352"><polygon points="100 50 50 0 0 50 100 50" fill="#000000"/><polygon points="100 100 50 50 0 100 100 100" fill="#000000"/></svg></g><g transform="translate(100.06,&#10;                                233.46) rotate(0, 16.676, 16.676)"><svg xmlns="http://www.w3.org/2000/svg" id="Layer_1" data-name="Layer 1" viewBox="0 0 100 100" width="33.352" height="33.352"><polygon points="100 100 50 50 0 100 100 100" fill="#000000"/></svg></g><g transform="translate(166.76,&#10;                                200.11) rotate(0, 16.676, 16.676)"><svg xmlns="http://www.w3.org/2000/svg" id="Layer_1" data-name="Layer 1" viewBox="0 0 100 100" width="33.352" height="33.352"><polygon points="100 0 50 50 0 0 100 0" fill="#000000"/><polygon points="100 100 50 50 0 100 100 100" fill="#000000"/></svg></g><g transform="translate(133.41,&#10;                                233.46) rotate(90, 16.676, 16.676)"><svg xmlns="http://www.w3.org/2000/svg" id="Layer_1" data-name="Layer 1" viewBox="0 0 100 100" width="33.352" height="33.352"><polygon points="0 94.265 100 94.265 50 5.735 0 94.265" fill="#000000"/></svg></g><g transform="translate(166.76,&#10;                                233.46) rotate(270, 16.676, 16.676)"><svg xmlns="http://www.w3.org/2000/svg" id="Layer_1" data-name="Layer 1" viewBox="0 0 100 100" width="33.352" height="33.352"><polygon points="100 0 50 50 0 0 100 0" fill="#000000"/><polygon points="100 100 50 50 0 100 100 100" fill="#000000"/></svg></g><g transform="translate(233.46,&#10;                                200.11) rotate(90, 16.676, 16.676)"><svg xmlns="http://www.w3.org/2000/svg" id="Layer_1" data-name="Layer 1" viewBox="0 0 100 100" width="33.352" height="33.352"><polygon points="100 50 50 0 0 50 100 50" fill="#000000"/><polygon points="100 100 50 50 0 100 100 100" fill="#000000"/></svg></g><g transform="translate(200.11,&#10;                                233.46) rotate(90, 16.676, 16.676)"><svg xmlns="http://www.w3.org/2000/svg" id="Layer_1" data-name="Layer 1" viewBox="0 0 100 100" width="33.352" height="33.352"><polygon points="0 94.265 100 94.265 50 5.735 0 94.265" fill="#000000"/></svg></g><g transform="translate(233.46,&#10;                                233.46) rotate(0, 16.676, 16.676)"><svg xmlns="http://www.w3.org/2000/svg" id="Layer_1" data-name="Layer 1" viewBox="0 0 100 100" width="33.352" height="33.352"><polygon points="100 100 50 50 0 100 100 100" fill="#000000"/></svg></g><g transform="translate(266.82,&#10;                                200.11) rotate(0, 16.676, 16.676)"><svg xmlns="http://www.w3.org/2000/svg" id="Layer_1" data-name="Layer 1" viewBox="0 0 100 100" width="33.352" height="33.352"><polygon points="100 50 50 0 0 50 100 50" fill="#000000"/><polygon points="100 100 50 50 0 100 100 100" fill="#000000"/></svg></g><g transform="translate(266.82,&#10;                                233.46) rotate(90, 16.676, 16.676)"><svg xmlns="http://www.w3.org/2000/svg" id="Layer_1" data-name="Layer 1" viewBox="0 0 100 100" width="33.352" height="33.352"><polygon points="100 50 50 0 0 50 100 50" fill="#000000"/><polygon points="100 100 50 50 0 100 100 100" fill="#000000"/></svg></g><g transform="translate(366.87,&#10;                                200.11) rotate(0, 16.676, 16.676)"><svg xmlns="http://www.w3.org/2000/svg" id="Layer_1" data-name="Layer 1" viewBox="0 0 100 100" width="33.352" height="33.352"><polygon points="100 0 50 50 0 0 100 0" fill="#000000"/><polygon points="100 100 50 50 0 100 100 100" fill="#000000"/></svg></g><g transform="translate(433.58,&#10;                                200.11) rotate(180, 16.676, 16.676)"><svg xmlns="http://www.w3.org/2000/svg" id="Layer_1" data-name="Layer 1" viewBox="0 0 100 100" width="33.352" height="33.352"><polygon points="100 50 50 0 0 50 100 50" fill="#000000"/><polygon points="100 100 50 50 0 100 100 100" fill="#000000"/></svg></g><g transform="translate(500.28,&#10;                                200.11) rotate(180, 16.676, 16.676)"><svg xmlns="http://www.w3.org/2000/svg" id="Layer_1" data-name="Layer 1" viewBox="0 0 100 100" width="33.352" height="33.352"><polygon points="100 0 50 50 0 0 100 0" fill="#000000"/><polygon points="100 100 50 50 0 100 100 100" fill="#000000"/></svg></g><g transform="translate(466.93,&#10;                                233.46) rotate(270, 16.676, 16.676)"><svg xmlns="http://www.w3.org/2000/svg" id="Layer_1" data-name="Layer 1" viewBox="0 0 100 100" width="33.352" height="33.352"><polygon points="0 94.265 100 94.265 50 5.735 0 94.265" fill="#000000"/></svg></g><g transform="translate(500.28,&#10;                                233.46) rotate(180, 16.676, 16.676)"><svg xmlns="http://www.w3.org/2000/svg" id="Layer_1" data-name="Layer 1" viewBox="0 0 100 100" width="33.352" height="33.352"><polygon points="100 100 50 50 0 100 100 100" fill="#000000"/></svg></g><g transform="translate(566.98,&#10;                                200.11) rotate(180, 16.676, 16.676)"><svg xmlns="http://www.w3.org/2000/svg" id="Layer_1" data-name="Layer 1" viewBox="0 0 100 100" width="33.352" height="33.352"><polygon points="100 50 50 0 0 50 100 50" fill="#000000"/><polygon points="100 100 50 50 0 100 100 100" fill="#000000"/></svg></g><g transform="translate(566.98,&#10;                                233.46) rotate(270, 16.676, 16.676)"><svg xmlns="http://www.w3.org/2000/svg" id="Layer_1" data-name="Layer 1" viewBox="0 0 100 100" width="33.352" height="33.352"><polygon points="100 0 50 50 0 0 100 0" fill="#000000"/><polygon points="100 100 50 50 0 100 100 100" fill="#000000"/></svg></g><g transform="translate(633.69,&#10;                                200.11) rotate(180, 16.676, 16.676)"><svg xmlns="http://www.w3.org/2000/svg" id="Layer_1" data-name="Layer 1" viewBox="0 0 100 100" width="33.352" height="33.352"><polygon points="100 0 50 50 0 0 100 0" fill="#000000"/><polygon points="100 100 50 50 0 100 100 100" fill="#000000"/></svg></g><g transform="translate(600.34,&#10;                                233.46) rotate(270, 16.676, 16.676)"><svg xmlns="http://www.w3.org/2000/svg" id="Layer_1" data-name="Layer 1" viewBox="0 0 100 100" width="33.352" height="33.352"><polygon points="0 94.265 100 94.265 50 5.735 0 94.265" fill="#000000"/></svg></g></g><g><g transform="translate(0.00,&#10;                                266.82) rotate(270, 16.676, 16.676)"><svg xmlns="http://www.w3.org/2000/svg" id="Layer_1" data-name="Layer 1" viewBox="0 0 100 100" width="33.352" height="33.352"><polygon points="100 0 50 50 0 0 100 0" fill="#000000"/><polygon points="100 100 50 50 0 100 100 100" fill="#000000"/></svg></g><g transform="translate(0.00,&#10;                                300.17) rotate(180, 16.676, 16.676)"><svg xmlns="http://www.w3.org/2000/svg" id="Layer_1" data-name="Layer 1" viewBox="0 0 100 100" width="33.352" height="33.352"><polygon points="0 94.265 100 94.265 50 5.735 0 94.265" fill="#000000"/></svg></g><g transform="translate(66.70,&#10;                                266.82) rotate(270, 16.676, 16.676)"><svg xmlns="http://www.w3.org/2000/svg" id="Layer_1" data-name="Layer 1" viewBox="0 0 100 100" width="33.352" height="33.352"><polygon points="100 50 50 0 0 50 100 50" fill="#000000"/><polygon points="100 100 50 50 0 100 100 100" fill="#000000"/></svg></g><g transform="translate(100.06,&#10;                                266.82) rotate(0, 16.676, 16.676)"><svg xmlns="http://www.w3.org/2000/svg" id="Layer_1" data-name="Layer 1" viewBox="0 0 100 100" width="33.352" height="33.352"><polygon points="100 0 50 50 0 0 100 0" fill="#000000"/><polygon points="100 100 50 50 0 100 100 100" fill="#000000"/></svg></g><g transform="translate(66.70,&#10;                                300.17) rotate(90, 16.676, 16.676)"><svg xmlns="http://www.w3.org/2000/svg" id="Layer_1" data-name="Layer 1" viewBox="0 0 100 100" width="33.352" height="33.352"><polygon points="0 94.265 100 94.265 50 5.735 0 94.265" fill="#000000"/></svg></g><g transform="translate(133.41,&#10;                                266.82) rotate(270, 16.676, 16.676)"><svg xmlns="http://www.w3.org/2000/svg" id="Layer_1" data-name="Layer 1" viewBox="0 0 100 100" width="33.352" height="33.352"><polygon points="0 94.265 100 94.265 50 5.735 0 94.265" fill="#000000"/></svg></g><g transform="translate(133.41,&#10;                                300.17) rotate(270, 16.676, 16.676)"><svg xmlns="http://www.w3.org/2000/svg" id="Layer_1" data-name="Layer 1" viewBox="0 0 100 100" width="33.352" height="33.352"><polygon points="100 100 50 50 0 100 100 100" fill="#000000"/></svg></g><g transform="translate(233.46,&#10;                                266.82) rotate(0, 16.676, 16.676)"><svg xmlns="http://www.w3.org/2000/svg" id="Layer_1" data-name="Layer 1" viewBox="0 0 100 100" width="33.352" height="33.352"><polygon points="100 50 50 0 0 50 100 50" fill="#000000"/><polygon points="100 100 50 50 0 100 100 100" fill="#000000"/></svg></g><g transform="translate(266.82,&#10;                                266.82) rotate(90, 16.676, 16.676)"><svg xmlns="http://www.w3.org/2000/svg" id="Layer_1" data-name="Layer 1" viewBox="0 0 100 100" width="33.352" height="33.352"><polygon points="100 50 50 0 0 50 100 50" fill="#000000"/><polygon points="100 100 50 50 0 100 100 100" fill="#000000"/></svg></g><g transform="translate(300.17,&#10;                                266.82) rotate(90, 16.676, 16.676)"><svg xmlns="http://www.w3.org/2000/svg" id="Layer_1" data-name="Layer 1" viewBox="0 0 100 100" width="33.352" height="33.352"><polygon points="100 50 50 0 0 50 100 50" fill="#000000"/><polygon points="100 100 50 50 0 100 100 100" fill="#000000"/></svg></g><g transform="translate(266.82,&#10;                                300.17) rotate(270, 16.676, 16.676)"><svg xmlns="http://www.w3.org/2000/svg" id="Layer_1" data-name="Layer 1" viewBox="0 0 100 100" width="33.352" height="33.352"><polygon points="0 94.265 100 94.265 50 5.735 0 94.265" fill="#000000"/></svg></g><g transform="translate(333.52,&#10;                                266.82) rotate(0, 16.676, 16.676)"><svg xmlns="http://www.w3.org/2000/svg" id="Layer_1" data-name="Layer 1" viewBox="0 0 100 100" width="33.352" height="33.352"><polygon points="100 0 50 50 0 0 100 0" fill="#000000"/><polygon points="100 100 50 50 0 100 100 100" fill="#000000"/></svg></g><g transform="translate(366.87,&#10;                                266.82) rotate(180, 16.676, 16.676)"><svg xmlns="http://www.w3.org/2000/svg" id="Layer_1" data-name="Layer 1" viewBox="0 0 100 100" width="33.352" height="33.352"><polygon points="100 50 50 0 0 50 100 50" fill="#000000"/><polygon points="100 100 50 50 0 100 100 100" fill="#000000"/></svg></g><g transform="translate(333.52,&#10;                                300.17) rotate(0, 16.676, 16.676)"><svg xmlns="http://www.w3.org/2000/svg" id="Layer_1" data-name="Layer 1" viewBox="0 0 100 100" width="33.352" height="33.352"><polygon points="0 94.265 100 94.265 50 5.735 0 94.265" fill="#000000"/></svg></g><g transform="translate(366.87,&#10;                                300.17) rotate(0, 16.676, 16.676)"><svg xmlns="http://www.w3.org/2000/svg" id="Layer_1" data-name="Layer 1" viewBox="0 0 100 100" width="33.352" height="33.352"><polygon points="100 100 50 50 0 100 100 100" fill="#000000"/></svg></g><g transform="translate(400.22,&#10;                                266.82) rotate(90, 16.676, 16.676)"><svg xmlns="http://www.w3.org/2000/svg" id="Layer_1" data-name="Layer 1" viewBox="0 0 100 100" width="33.352" height="33.352"><polygon points="0 94.265 100 94.265 50 5.735 0 94.265" fill="#000000"/></svg></g><g transform="translate(400.22,&#10;                                300.17) rotate(180, 16.676, 16.676)"><svg xmlns="http://www.w3.org/2000/svg" id="Layer_1" data-name="Layer 1" viewBox="0 0 100 100" width="33.352" height="33.352"><polygon points="0 94.265 100 94.265 50 5.735 0 94.265" fill="#000000"/></svg></g><g transform="translate(466.93,&#10;                                266.82) rotate(180, 16.676, 16.676)"><svg xmlns="http://www.w3.org/2000/svg" id="Layer_1" data-name="Layer 1" viewBox="0 0 100 100" width="33.352" height="33.352"><polygon points="0 94.265 100 94.265 50 5.735 0 94.265" fill="#000000"/></svg></g><g transform="translate(466.93,&#10;                                300.17) rotate(0, 16.676, 16.676)"><svg xmlns="http://www.w3.org/2000/svg" id="Layer_1" data-name="Layer 1" viewBox="0 0 100 100" width="33.352" height="33.352"><polygon points="100 100 50 50 0 100 100 100" fill="#000000"/></svg></g><g transform="translate(500.28,&#10;                                300.17) rotate(180, 16.676, 16.676)"><svg xmlns="http://www.w3.org/2000/svg" id="Layer_1" data-name="Layer 1" viewBox="0 0 100 100" width="33.352" height="33.352"><polygon points="100 0 50 50 0 0 100 0" fill="#000000"/><polygon points="100 100 50 50 0 100 100 100" fill="#000000"/></svg></g><g transform="translate(566.98,&#10;                                266.82) rotate(90, 16.676, 16.676)"><svg xmlns="http://www.w3.org/2000/svg" id="Layer_1" data-name="Layer 1" viewBox="0 0 100 100" width="33.352" height="33.352"><polygon points="100 0 50 50 0 0 100 0" fill="#000000"/><polygon points="100 100 50 50 0 100 100 100" fill="#000000"/></svg></g><g transform="translate(533.63,&#10;                                300.17) rotate(180, 16.676, 16.676)"><svg xmlns="http://www.w3.org/2000/svg" id="Layer_1" data-name="Layer 1" viewBox="0 0 100 100" width="33.352" height="33.352"><polygon points="0 94.265 100 94.265 50 5.735 0 94.265" fill="#000000"/></svg></g><g transform="translate(633.69,&#10;                                266.82) rotate(0, 16.676, 16.676)"><svg xmlns="http://www.w3.org/2000/svg" id="Layer_1" data-name="Layer 1" viewBox="0 0 100 100" width="33.352" height="33.352"><polygon points="100 0 50 50 0 0 100 0" fill="#000000"/><polygon points="100 100 50 50 0 100 100 100" fill="#000000"/></svg></g><g transform="translate(600.34,&#10;                                300.17) rotate(90, 16.676, 16.676)"><svg xmlns="http://www.w3.org/2000/svg" id="Layer_1" data-name="Layer 1" viewBox="0 0 100 100" width="33.352" height="33.352"><polygon points="0 94.265 100 94.265 50 5.735 0 94.265" fill="#000000"/></svg></g></g><g><g transform="translate(33.35,&#10;                                333.52) rotate(180, 16.676, 16.676)"><svg xmlns="http://www.w3.org/2000/svg" id="Layer_1" data-name="Layer 1" viewBox="0 0 100 100" width="33.352" height="33.352"><polygon points="100 0 50 50 0 0 100 0" fill="#000000"/><polygon points="100 100 50 50 0 100 100 100" fill="#000000"/></svg></g><g transform="translate(0.00,&#10;                                366.87) rotate(180, 16.676, 16.676)"><svg xmlns="http://www.w3.org/2000/svg" id="Layer_1" data-name="Layer 1" viewBox="0 0 100 100" width="33.352" height="33.352"><polygon points="0 94.265 100 94.265 50 5.735 0 94.265" fill="#000000"/></svg></g><g transform="translate(33.35,&#10;                                366.87) rotate(90, 16.676, 16.676)"><svg xmlns="http://www.w3.org/2000/svg" id="Layer_1" data-name="Layer 1" viewBox="0 0 100 100" width="33.352" height="33.352"><polygon points="100 0 50 50 0 0 100 0" fill="#000000"/><polygon points="100 100 50 50 0 100 100 100" fill="#000000"/></svg></g><g transform="translate(66.70,&#10;                                333.52) rotate(0, 16.676, 16.676)"><svg xmlns="http://www.w3.org/2000/svg" id="Layer_1" data-name="Layer 1" viewBox="0 0 100 100" width="33.352" height="33.352"><polygon points="100 50 50 0 0 50 100 50" fill="#000000"/><polygon points="100 100 50 50 0 100 100 100" fill="#000000"/></svg></g><g transform="translate(100.06,&#10;                                333.52) rotate(180, 16.676, 16.676)"><svg xmlns="http://www.w3.org/2000/svg" id="Layer_1" data-name="Layer 1" viewBox="0 0 100 100" width="33.352" height="33.352"><polygon points="100 100 50 50 0 100 100 100" fill="#000000"/></svg></g><g transform="translate(66.70,&#10;                                366.87) rotate(180, 16.676, 16.676)"><svg xmlns="http://www.w3.org/2000/svg" id="Layer_1" data-name="Layer 1" viewBox="0 0 100 100" width="33.352" height="33.352"><polygon points="100 100 50 50 0 100 100 100" fill="#000000"/></svg></g><g transform="translate(133.41,&#10;                                333.52) rotate(180, 16.676, 16.676)"><svg xmlns="http://www.w3.org/2000/svg" id="Layer_1" data-name="Layer 1" viewBox="0 0 100 100" width="33.352" height="33.352"><polygon points="0 94.265 100 94.265 50 5.735 0 94.265" fill="#000000"/></svg></g><g transform="translate(133.41,&#10;                                366.87) rotate(180, 16.676, 16.676)"><svg xmlns="http://www.w3.org/2000/svg" id="Layer_1" data-name="Layer 1" viewBox="0 0 100 100" width="33.352" height="33.352"><polygon points="0 94.265 100 94.265 50 5.735 0 94.265" fill="#000000"/></svg></g><g transform="translate(166.76,&#10;                                366.87) rotate(180, 16.676, 16.676)"><svg xmlns="http://www.w3.org/2000/svg" id="Layer_1" data-name="Layer 1" viewBox="0 0 100 100" width="33.352" height="33.352"><polygon points="100 100 50 50 0 100 100 100" fill="#000000"/></svg></g><g transform="translate(200.11,&#10;                                333.52) rotate(0, 16.676, 16.676)"><svg xmlns="http://www.w3.org/2000/svg" id="Layer_1" data-name="Layer 1" viewBox="0 0 100 100" width="33.352" height="33.352"><polygon points="0 94.265 100 94.265 50 5.735 0 94.265" fill="#000000"/></svg></g><g transform="translate(200.11,&#10;                                366.87) rotate(270, 16.676, 16.676)"><svg xmlns="http://www.w3.org/2000/svg" id="Layer_1" data-name="Layer 1" viewBox="0 0 100 100" width="33.352" height="33.352"><polygon points="100 50 50 0 0 50 100 50" fill="#000000"/><polygon points="100 100 50 50 0 100 100 100" fill="#000000"/></svg></g><g transform="translate(266.82,&#10;                                333.52) rotate(270, 16.676, 16.676)"><svg xmlns="http://www.w3.org/2000/svg" id="Layer_1" data-name="Layer 1" viewBox="0 0 100 100" width="33.352" height="33.352"><polygon points="100 50 50 0 0 50 100 50" fill="#000000"/><polygon points="100 100 50 50 0 100 100 100" fill="#000000"/></svg></g><g transform="translate(300.17,&#10;                                333.52) rotate(270, 16.676, 16.676)"><svg xmlns="http://www.w3.org/2000/svg" id="Layer_1" data-name="Layer 1" viewBox="0 0 100 100" width="33.352" height="33.352"><polygon points="100 0 50 50 0 0 100 0" fill="#000000"/><polygon points="100 100 50 50 0 100 100 100" fill="#000000"/></svg></g><g transform="translate(266.82,&#10;                                366.87) rotate(0, 16.676, 16.676)"><svg xmlns="http://www.w3.org/2000/svg" id="Layer_1" data-name="Layer 1" viewBox="0 0 100 100" width="33.352" height="33.352"><polygon points="0 94.265 100 94.265 50 5.735 0 94.265" fill="#000000"/></svg></g><g transform="translate(333.52,&#10;                                333.52) rotate(270, 16.676, 16.676)"><svg xmlns="http://www.w3.org/2000/svg" id="Layer_1" data-name="Layer 1" viewBox="0 0 100 100" width="33.352" height="33.352"><polygon points="100 50 50 0 0 50 100 50" fill="#000000"/><polygon points="100 100 50 50 0 100 100 100" fill="#000000"/></svg></g><g transform="translate(333.52,&#10;                                366.87) rotate(90, 16.676, 16.676)"><svg xmlns="http://www.w3.org/2000/svg" id="Layer_1" data-name="Layer 1" viewBox="0 0 100 100" width="33.352" height="33.352"><polygon points="100 100 50 50 0 100 100 100" fill="#000000"/></svg></g><g transform="translate(366.87,&#10;                                366.87) rotate(270, 16.676, 16.676)"><svg xmlns="http://www.w3.org/2000/svg" id="Layer_1" data-name="Layer 1" viewBox="0 0 100 100" width="33.352" height="33.352"><polygon points="100 100 50 50 0 100 100 100" fill="#000000"/></svg></g><g transform="translate(433.58,&#10;                                333.52) rotate(180, 16.676, 16.676)"><svg xmlns="http://www.w3.org/2000/svg" id="Layer_1" data-name="Layer 1" viewBox="0 0 100 100" width="33.352" height="33.352"><polygon points="100 0 50 50 0 0 100 0" fill="#000000"/><polygon points="100 100 50 50 0 100 100 100" fill="#000000"/></svg></g><g transform="translate(466.93,&#10;                                333.52) rotate(90, 16.676, 16.676)"><svg xmlns="http://www.w3.org/2000/svg" id="Layer_1" data-name="Layer 1" viewBox="0 0 100 100" width="33.352" height="33.352"><polygon points="100 50 50 0 0 50 100 50" fill="#000000"/><polygon points="100 100 50 50 0 100 100 100" fill="#000000"/></svg></g><g transform="translate(466.93,&#10;                                366.87) rotate(270, 16.676, 16.676)"><svg xmlns="http://www.w3.org/2000/svg" id="Layer_1" data-name="Layer 1" viewBox="0 0 100 100" width="33.352" height="33.352"><polygon points="0 94.265 100 94.265 50 5.735 0 94.265" fill="#000000"/></svg></g><g transform="translate(566.98,&#10;                                333.52) rotate(270, 16.676, 16.676)"><svg xmlns="http://www.w3.org/2000/svg" id="Layer_1" data-name="Layer 1" viewBox="0 0 100 100" width="33.352" height="33.352"><polygon points="100 0 50 50 0 0 100 0" fill="#000000"/><polygon points="100 100 50 50 0 100 100 100" fill="#000000"/></svg></g><g transform="translate(533.63,&#10;                                366.87) rotate(0, 16.676, 16.676)"><svg xmlns="http://www.w3.org/2000/svg" id="Layer_1" data-name="Layer 1" viewBox="0 0 100 100" width="33.352" height="33.352"><polygon points="100 50 50 0 0 50 100 50" fill="#000000"/><polygon points="100 100 50 50 0 100 100 100" fill="#000000"/></svg></g><g transform="translate(566.98,&#10;                                366.87) rotate(180, 16.676, 16.676)"><svg xmlns="http://www.w3.org/2000/svg" id="Layer_1" data-name="Layer 1" viewBox="0 0 100 100" width="33.352" height="33.352"><polygon points="100 100 50 50 0 100 100 100" fill="#000000"/></svg></g><g transform="translate(600.34,&#10;                                333.52) rotate(90, 16.676, 16.676)"><svg xmlns="http://www.w3.org/2000/svg" id="Layer_1" data-name="Layer 1" viewBox="0 0 100 100" width="33.352" height="33.352"><polygon points="100 0 50 50 0 0 100 0" fill="#000000"/><polygon points="100 100 50 50 0 100 100 100" fill="#000000"/></svg></g><g transform="translate(600.34,&#10;                                366.87) rotate(90, 16.676, 16.676)"><svg xmlns="http://www.w3.org/2000/svg" id="Layer_1" data-name="Layer 1" viewBox="0 0 100 100" width="33.352" height="33.352"><polygon points="0 94.265 100 94.265 50 5.735 0 94.265" fill="#000000"/></svg></g><g transform="translate(633.69,&#10;                                366.87) rotate(270, 16.676, 16.676)"><svg xmlns="http://www.w3.org/2000/svg" id="Layer_1" data-name="Layer 1" viewBox="0 0 100 100" width="33.352" height="33.352"><polygon points="100 0 50 50 0 0 100 0" fill="#000000"/><polygon points="100 100 50 50 0 100 100 100" fill="#000000"/></svg></g></g><g><g transform="translate(0.00,&#10;                                400.22) rotate(90, 16.676, 16.676)"><svg xmlns="http://www.w3.org/2000/svg" id="Layer_1" data-name="Layer 1" viewBox="0 0 100 100" width="33.352" height="33.352"><polygon points="0 94.265 100 94.265 50 5.735 0 94.265" fill="#000000"/></svg></g><g transform="translate(33.35,&#10;                                400.22) rotate(180, 16.676, 16.676)"><svg xmlns="http://www.w3.org/2000/svg" id="Layer_1" data-name="Layer 1" viewBox="0 0 100 100" width="33.352" height="33.352"><polygon points="100 0 50 50 0 0 100 0" fill="#000000"/><polygon points="100 100 50 50 0 100 100 100" fill="#000000"/></svg></g><g transform="translate(0.00,&#10;                                433.58) rotate(90, 16.676, 16.676)"><svg xmlns="http://www.w3.org/2000/svg" id="Layer_1" data-name="Layer 1" viewBox="0 0 100 100" width="33.352" height="33.352"><polygon points="0 94.265 100 94.265 50 5.735 0 94.265" fill="#000000"/></svg></g><g transform="translate(33.35,&#10;                                433.58) rotate(0, 16.676, 16.676)"><svg xmlns="http://www.w3.org/2000/svg" id="Layer_1" data-name="Layer 1" viewBox="0 0 100 100" width="33.352" height="33.352"><polygon points="100 100 50 50 0 100 100 100" fill="#000000"/></svg></g><g transform="translate(100.06,&#10;                                400.22) rotate(90, 16.676, 16.676)"><svg xmlns="http://www.w3.org/2000/svg" id="Layer_1" data-name="Layer 1" viewBox="0 0 100 100" width="33.352" height="33.352"><polygon points="100 100 50 50 0 100 100 100" fill="#000000"/></svg></g><g transform="translate(66.70,&#10;                                433.58) rotate(270, 16.676, 16.676)"><svg xmlns="http://www.w3.org/2000/svg" id="Layer_1" data-name="Layer 1" viewBox="0 0 100 100" width="33.352" height="33.352"><polygon points="0 94.265 100 94.265 50 5.735 0 94.265" fill="#000000"/></svg></g><g transform="translate(100.06,&#10;                                433.58) rotate(180, 16.676, 16.676)"><svg xmlns="http://www.w3.org/2000/svg" id="Layer_1" data-name="Layer 1" viewBox="0 0 100 100" width="33.352" height="33.352"><polygon points="100 100 50 50 0 100 100 100" fill="#000000"/></svg></g><g transform="translate(133.41,&#10;                                400.22) rotate(0, 16.676, 16.676)"><svg xmlns="http://www.w3.org/2000/svg" id="Layer_1" data-name="Layer 1" viewBox="0 0 100 100" width="33.352" height="33.352"><polygon points="0 94.265 100 94.265 50 5.735 0 94.265" fill="#000000"/></svg></g><g transform="translate(166.76,&#10;                                400.22) rotate(90, 16.676, 16.676)"><svg xmlns="http://www.w3.org/2000/svg" id="Layer_1" data-name="Layer 1" viewBox="0 0 100 100" width="33.352" height="33.352"><polygon points="100 0 50 50 0 0 100 0" fill="#000000"/><polygon points="100 100 50 50 0 100 100 100" fill="#000000"/></svg></g><g transform="translate(133.41,&#10;                                433.58) rotate(180, 16.676, 16.676)"><svg xmlns="http://www.w3.org/2000/svg" id="Layer_1" data-name="Layer 1" viewBox="0 0 100 100" width="33.352" height="33.352"><polygon points="0 94.265 100 94.265 50 5.735 0 94.265" fill="#000000"/></svg></g><g transform="translate(200.11,&#10;                                400.22) rotate(0, 16.676, 16.676)"><svg xmlns="http://www.w3.org/2000/svg" id="Layer_1" data-name="Layer 1" viewBox="0 0 100 100" width="33.352" height="33.352"><polygon points="100 50 50 0 0 50 100 50" fill="#000000"/><polygon points="100 100 50 50 0 100 100 100" fill="#000000"/></svg></g><g transform="translate(233.46,&#10;                                400.22) rotate(90, 16.676, 16.676)"><svg xmlns="http://www.w3.org/2000/svg" id="Layer_1" data-name="Layer 1" viewBox="0 0 100 100" width="33.352" height="33.352"><polygon points="100 0 50 50 0 0 100 0" fill="#000000"/><polygon points="100 100 50 50 0 100 100 100" fill="#000000"/></svg></g><g transform="translate(200.11,&#10;                                433.58) rotate(90, 16.676, 16.676)"><svg xmlns="http://www.w3.org/2000/svg" id="Layer_1" data-name="Layer 1" viewBox="0 0 100 100" width="33.352" height="33.352"><polygon points="0 94.265 100 94.265 50 5.735 0 94.265" fill="#000000"/></svg></g><g transform="translate(233.46,&#10;                                433.58) rotate(0, 16.676, 16.676)"><svg xmlns="http://www.w3.org/2000/svg" id="Layer_1" data-name="Layer 1" viewBox="0 0 100 100" width="33.352" height="33.352"><polygon points="100 100 50 50 0 100 100 100" fill="#000000"/></svg></g><g transform="translate(266.82,&#10;                                400.22) rotate(0, 16.676, 16.676)"><svg xmlns="http://www.w3.org/2000/svg" id="Layer_1" data-name="Layer 1" viewBox="0 0 100 100" width="33.352" height="33.352"><polygon points="100 50 50 0 0 50 100 50" fill="#000000"/><polygon points="100 100 50 50 0 100 100 100" fill="#000000"/></svg></g><g transform="translate(266.82,&#10;                                433.58) rotate(270, 16.676, 16.676)"><svg xmlns="http://www.w3.org/2000/svg" id="Layer_1" data-name="Layer 1" viewBox="0 0 100 100" width="33.352" height="33.352"><polygon points="0 94.265 100 94.265 50 5.735 0 94.265" fill="#000000"/></svg></g><g transform="translate(300.17,&#10;                                433.58) rotate(0, 16.676, 16.676)"><svg xmlns="http://www.w3.org/2000/svg" id="Layer_1" data-name="Layer 1" viewBox="0 0 100 100" width="33.352" height="33.352"><polygon points="100 0 50 50 0 0 100 0" fill="#000000"/><polygon points="100 100 50 50 0 100 100 100" fill="#000000"/></svg></g><g transform="translate(333.52,&#10;                                400.22) rotate(270, 16.676, 16.676)"><svg xmlns="http://www.w3.org/2000/svg" id="Layer_1" data-name="Layer 1" viewBox="0 0 100 100" width="33.352" height="33.352"><polygon points="0 94.265 100 94.265 50 5.735 0 94.265" fill="#000000"/></svg></g><g transform="translate(366.87,&#10;                                400.22) rotate(0, 16.676, 16.676)"><svg xmlns="http://www.w3.org/2000/svg" id="Layer_1" data-name="Layer 1" viewBox="0 0 100 100" width="33.352" height="33.352"><polygon points="100 0 50 50 0 0 100 0" fill="#000000"/><polygon points="100 100 50 50 0 100 100 100" fill="#000000"/></svg></g><g transform="translate(400.22,&#10;                                400.22) rotate(270, 16.676, 16.676)"><svg xmlns="http://www.w3.org/2000/svg" id="Layer_1" data-name="Layer 1" viewBox="0 0 100 100" width="33.352" height="33.352"><polygon points="0 94.265 100 94.265 50 5.735 0 94.265" fill="#000000"/></svg></g><g transform="translate(433.58,&#10;                                400.22) rotate(180, 16.676, 16.676)"><svg xmlns="http://www.w3.org/2000/svg" id="Layer_1" data-name="Layer 1" viewBox="0 0 100 100" width="33.352" height="33.352"><polygon points="100 50 50 0 0 50 100 50" fill="#000000"/><polygon points="100 100 50 50 0 100 100 100" fill="#000000"/></svg></g><g transform="translate(400.22,&#10;                                433.58) rotate(180, 16.676, 16.676)"><svg xmlns="http://www.w3.org/2000/svg" id="Layer_1" data-name="Layer 1" viewBox="0 0 100 100" width="33.352" height="33.352"><polygon points="100 50 50 0 0 50 100 50" fill="#000000"/><polygon points="100 100 50 50 0 100 100 100" fill="#000000"/></svg></g><g transform="translate(433.58,&#10;                                433.58) rotate(0, 16.676, 16.676)"><svg xmlns="http://www.w3.org/2000/svg" id="Layer_1" data-name="Layer 1" viewBox="0 0 100 100" width="33.352" height="33.352"><polygon points="100 0 50 50 0 0 100 0" fill="#000000"/><polygon points="100 100 50 50 0 100 100 100" fill="#000000"/></svg></g><g transform="translate(466.93,&#10;                                400.22) rotate(0, 16.676, 16.676)"><svg xmlns="http://www.w3.org/2000/svg" id="Layer_1" data-name="Layer 1" viewBox="0 0 100 100" width="33.352" height="33.352"><polygon points="100 50 50 0 0 50 100 50" fill="#000000"/><polygon points="100 100 50 50 0 100 100 100" fill="#000000"/></svg></g><g transform="translate(500.28,&#10;                                400.22) rotate(270, 16.676, 16.676)"><svg xmlns="http://www.w3.org/2000/svg" id="Layer_1" data-name="Layer 1" viewBox="0 0 100 100" width="33.352" height="33.352"><polygon points="100 0 50 50 0 0 100 0" fill="#000000"/><polygon points="100 100 50 50 0 100 100 100" fill="#000000"/></svg></g><g transform="translate(466.93,&#10;                                433.58) rotate(180, 16.676, 16.676)"><svg xmlns="http://www.w3.org/2000/svg" id="Layer_1" data-name="Layer 1" viewBox="0 0 100 100" width="33.352" height="33.352"><polygon points="0 94.265 100 94.265 50 5.735 0 94.265" fill="#000000"/></svg></g><g transform="translate(533.63,&#10;                                400.22) rotate(180, 16.676, 16.676)"><svg xmlns="http://www.w3.org/2000/svg" id="Layer_1" data-name="Layer 1" viewBox="0 0 100 100" width="33.352" height="33.352"><polygon points="100 0 50 50 0 0 100 0" fill="#000000"/><polygon points="100 100 50 50 0 100 100 100" fill="#000000"/></svg></g><g transform="translate(533.63,&#10;                                433.58) rotate(180, 16.676, 16.676)"><svg xmlns="http://www.w3.org/2000/svg" id="Layer_1" data-name="Layer 1" viewBox="0 0 100 100" width="33.352" height="33.352"><polygon points="0 94.265 100 94.265 50 5.735 0 94.265" fill="#000000"/></svg></g><g transform="translate(566.98,&#10;                                433.58) rotate(90, 16.676, 16.676)"><svg xmlns="http://www.w3.org/2000/svg" id="Layer_1" data-name="Layer 1" viewBox="0 0 100 100" width="33.352" height="33.352"><polygon points="100 100 50 50 0 100 100 100" fill="#000000"/></svg></g><g transform="translate(600.34,&#10;                                400.22) rotate(90, 16.676, 16.676)"><svg xmlns="http://www.w3.org/2000/svg" id="Layer_1" data-name="Layer 1" viewBox="0 0 100 100" width="33.352" height="33.352"><polygon points="0 94.265 100 94.265 50 5.735 0 94.265" fill="#000000"/></svg></g><g transform="translate(633.69,&#10;                                400.22) rotate(0, 16.676, 16.676)"><svg xmlns="http://www.w3.org/2000/svg" id="Layer_1" data-name="Layer 1" viewBox="0 0 100 100" width="33.352" height="33.352"><polygon points="100 0 50 50 0 0 100 0" fill="#000000"/><polygon points="100 100 50 50 0 100 100 100" fill="#000000"/></svg></g><g transform="translate(600.34,&#10;                                433.58) rotate(0, 16.676, 16.676)"><svg xmlns="http://www.w3.org/2000/svg" id="Layer_1" data-name="Layer 1" viewBox="0 0 100 100" width="33.352" height="33.352"><polygon points="100 100 50 50 0 100 100 100" fill="#000000"/></svg></g></g><g><g transform="translate(0.00,&#10;                                500.28) rotate(0, 16.676, 16.676)"><svg xmlns="http://www.w3.org/2000/svg" id="Layer_1" data-name="Layer 1" viewBox="0 0 100 100" width="33.352" height="33.352"><polygon points="0 94.265 100 94.265 50 5.735 0 94.265" fill="#000000"/></svg></g><g transform="translate(33.35,&#10;                                500.28) rotate(180, 16.676, 16.676)"><svg xmlns="http://www.w3.org/2000/svg" id="Layer_1" data-name="Layer 1" viewBox="0 0 100 100" width="33.352" height="33.352"><polygon points="100 100 50 50 0 100 100 100" fill="#000000"/></svg></g><g transform="translate(66.70,&#10;                                466.93) rotate(0, 16.676, 16.676)"><svg xmlns="http://www.w3.org/2000/svg" id="Layer_1" data-name="Layer 1" viewBox="0 0 100 100" width="33.352" height="33.352"><polygon points="100 0 50 50 0 0 100 0" fill="#000000"/><polygon points="100 100 50 50 0 100 100 100" fill="#000000"/></svg></g><g transform="translate(100.06,&#10;                                466.93) rotate(0, 16.676, 16.676)"><svg xmlns="http://www.w3.org/2000/svg" id="Layer_1" data-name="Layer 1" viewBox="0 0 100 100" width="33.352" height="33.352"><polygon points="100 0 50 50 0 0 100 0" fill="#000000"/><polygon points="100 100 50 50 0 100 100 100" fill="#000000"/></svg></g><g transform="translate(133.41,&#10;                                466.93) rotate(270, 16.676, 16.676)"><svg xmlns="http://www.w3.org/2000/svg" id="Layer_1" data-name="Layer 1" viewBox="0 0 100 100" width="33.352" height="33.352"><polygon points="100 50 50 0 0 50 100 50" fill="#000000"/><polygon points="100 100 50 50 0 100 100 100" fill="#000000"/></svg></g><g transform="translate(166.76,&#10;                                466.93) rotate(0, 16.676, 16.676)"><svg xmlns="http://www.w3.org/2000/svg" id="Layer_1" data-name="Layer 1" viewBox="0 0 100 100" width="33.352" height="33.352"><polygon points="100 100 50 50 0 100 100 100" fill="#000000"/></svg></g><g transform="translate(133.41,&#10;                                500.28) rotate(90, 16.676, 16.676)"><svg xmlns="http://www.w3.org/2000/svg" id="Layer_1" data-name="Layer 1" viewBox="0 0 100 100" width="33.352" height="33.352"><polygon points="100 50 50 0 0 50 100 50" fill="#000000"/><polygon points="100 100 50 50 0 100 100 100" fill="#000000"/></svg></g><g transform="translate(200.11,&#10;                                466.93) rotate(0, 16.676, 16.676)"><svg xmlns="http://www.w3.org/2000/svg" id="Layer_1" data-name="Layer 1" viewBox="0 0 100 100" width="33.352" height="33.352"><polygon points="0 94.265 100 94.265 50 5.735 0 94.265" fill="#000000"/></svg></g><g transform="translate(233.46,&#10;                                466.93) rotate(270, 16.676, 16.676)"><svg xmlns="http://www.w3.org/2000/svg" id="Layer_1" data-name="Layer 1" viewBox="0 0 100 100" width="33.352" height="33.352"><polygon points="100 100 50 50 0 100 100 100" fill="#000000"/></svg></g><g transform="translate(200.11,&#10;                                500.28) rotate(270, 16.676, 16.676)"><svg xmlns="http://www.w3.org/2000/svg" id="Layer_1" data-name="Layer 1" viewBox="0 0 100 100" width="33.352" height="33.352"><polygon points="100 100 50 50 0 100 100 100" fill="#000000"/></svg></g><g transform="translate(300.17,&#10;                                466.93) rotate(90, 16.676, 16.676)"><svg xmlns="http://www.w3.org/2000/svg" id="Layer_1" data-name="Layer 1" viewBox="0 0 100 100" width="33.352" height="33.352"><polygon points="100 100 50 50 0 100 100 100" fill="#000000"/></svg></g><g transform="translate(266.82,&#10;                                500.28) rotate(90, 16.676, 16.676)"><svg xmlns="http://www.w3.org/2000/svg" id="Layer_1" data-name="Layer 1" viewBox="0 0 100 100" width="33.352" height="33.352"><polygon points="0 94.265 100 94.265 50 5.735 0 94.265" fill="#000000"/></svg></g><g transform="translate(300.17,&#10;                                500.28) rotate(90, 16.676, 16.676)"><svg xmlns="http://www.w3.org/2000/svg" id="Layer_1" data-name="Layer 1" viewBox="0 0 100 100" width="33.352" height="33.352"><polygon points="100 100 50 50 0 100 100 100" fill="#000000"/></svg></g><g transform="translate(366.87,&#10;                                466.93) rotate(0, 16.676, 16.676)"><svg xmlns="http://www.w3.org/2000/svg" id="Layer_1" data-name="Layer 1" viewBox="0 0 100 100" width="33.352" height="33.352"><polygon points="100 100 50 50 0 100 100 100" fill="#000000"/></svg></g><g transform="translate(333.52,&#10;                                500.28) rotate(90, 16.676, 16.676)"><svg xmlns="http://www.w3.org/2000/svg" id="Layer_1" data-name="Layer 1" viewBox="0 0 100 100" width="33.352" height="33.352"><polygon points="100 50 50 0 0 50 100 50" fill="#000000"/><polygon points="100 100 50 50 0 100 100 100" fill="#000000"/></svg></g><g transform="translate(400.22,&#10;                                466.93) rotate(270, 16.676, 16.676)"><svg xmlns="http://www.w3.org/2000/svg" id="Layer_1" data-name="Layer 1" viewBox="0 0 100 100" width="33.352" height="33.352"><polygon points="100 50 50 0 0 50 100 50" fill="#000000"/><polygon points="100 100 50 50 0 100 100 100" fill="#000000"/></svg></g><g transform="translate(433.58,&#10;                                466.93) rotate(180, 16.676, 16.676)"><svg xmlns="http://www.w3.org/2000/svg" id="Layer_1" data-name="Layer 1" viewBox="0 0 100 100" width="33.352" height="33.352"><polygon points="100 50 50 0 0 50 100 50" fill="#000000"/><polygon points="100 100 50 50 0 100 100 100" fill="#000000"/></svg></g><g transform="translate(433.58,&#10;                                500.28) rotate(0, 16.676, 16.676)"><svg xmlns="http://www.w3.org/2000/svg" id="Layer_1" data-name="Layer 1" viewBox="0 0 100 100" width="33.352" height="33.352"><polygon points="100 100 50 50 0 100 100 100" fill="#000000"/></svg></g><g transform="translate(466.93,&#10;                                466.93) rotate(0, 16.676, 16.676)"><svg xmlns="http://www.w3.org/2000/svg" id="Layer_1" data-name="Layer 1" viewBox="0 0 100 100" width="33.352" height="33.352"><polygon points="100 50 50 0 0 50 100 50" fill="#000000"/><polygon points="100 100 50 50 0 100 100 100" fill="#000000"/></svg></g><g transform="translate(500.28,&#10;                                466.93) rotate(270, 16.676, 16.676)"><svg xmlns="http://www.w3.org/2000/svg" id="Layer_1" data-name="Layer 1" viewBox="0 0 100 100" width="33.352" height="33.352"><polygon points="100 0 50 50 0 0 100 0" fill="#000000"/><polygon points="100 100 50 50 0 100 100 100" fill="#000000"/></svg></g><g transform="translate(466.93,&#10;                                500.28) rotate(90, 16.676, 16.676)"><svg xmlns="http://www.w3.org/2000/svg" id="Layer_1" data-name="Layer 1" viewBox="0 0 100 100" width="33.352" height="33.352"><polygon points="100 50 50 0 0 50 100 50" fill="#000000"/><polygon points="100 100 50 50 0 100 100 100" fill="#000000"/></svg></g><g transform="translate(566.98,&#10;                                466.93) rotate(90, 16.676, 16.676)"><svg xmlns="http://www.w3.org/2000/svg" id="Layer_1" data-name="Layer 1" viewBox="0 0 100 100" width="33.352" height="33.352"><polygon points="100 100 50 50 0 100 100 100" fill="#000000"/></svg></g><g transform="translate(533.63,&#10;                                500.28) rotate(90, 16.676, 16.676)"><svg xmlns="http://www.w3.org/2000/svg" id="Layer_1" data-name="Layer 1" viewBox="0 0 100 100" width="33.352" height="33.352"><polygon points="0 94.265 100 94.265 50 5.735 0 94.265" fill="#000000"/></svg></g><g transform="translate(566.98,&#10;                                500.28) rotate(270, 16.676, 16.676)"><svg xmlns="http://www.w3.org/2000/svg" id="Layer_1" data-name="Layer 1" viewBox="0 0 100 100" width="33.352" height="33.352"><polygon points="100 0 50 50 0 0 100 0" fill="#000000"/><polygon points="100 100 50 50 0 100 100 100" fill="#000000"/></svg></g><g transform="translate(600.34,&#10;                                466.93) rotate(0, 16.676, 16.676)"><svg xmlns="http://www.w3.org/2000/svg" id="Layer_1" data-name="Layer 1" viewBox="0 0 100 100" width="33.352" height="33.352"><polygon points="100 0 50 50 0 0 100 0" fill="#000000"/><polygon points="100 100 50 50 0 100 100 100" fill="#000000"/></svg></g><g transform="translate(600.34,&#10;                                500.28) rotate(180, 16.676, 16.676)"><svg xmlns="http://www.w3.org/2000/svg" id="Layer_1" data-name="Layer 1" viewBox="0 0 100 100" width="33.352" height="33.352"><polygon points="0 94.265 100 94.265 50 5.735 0 94.265" fill="#000000"/></svg></g><g transform="translate(633.69,&#10;                                500.28) rotate(270, 16.676, 16.676)"><svg xmlns="http://www.w3.org/2000/svg" id="Layer_1" data-name="Layer 1" viewBox="0 0 100 100" width="33.352" height="33.352"><polygon points="100 100 50 50 0 100 100 100" fill="#000000"/></svg></g></g><g><g transform="translate(0.00,&#10;                                533.63) rotate(270, 16.676, 16.676)"><svg xmlns="http://www.w3.org/2000/svg" id="Layer_1" data-name="Layer 1" viewBox="0 0 100 100" width="33.352" height="33.352"><polygon points="100 50 50 0 0 50 100 50" fill="#000000"/><polygon points="100 100 50 50 0 100 100 100" fill="#000000"/></svg></g><g transform="translate(33.35,&#10;                                533.63) rotate(270, 16.676, 16.676)"><svg xmlns="http://www.w3.org/2000/svg" id="Layer_1" data-name="Layer 1" viewBox="0 0 100 100" width="33.352" height="33.352"><polygon points="100 100 50 50 0 100 100 100" fill="#000000"/></svg></g><g transform="translate(0.00,&#10;                                566.98) rotate(270, 16.676, 16.676)"><svg xmlns="http://www.w3.org/2000/svg" id="Layer_1" data-name="Layer 1" viewBox="0 0 100 100" width="33.352" height="33.352"><polygon points="100 50 50 0 0 50 100 50" fill="#000000"/><polygon points="100 100 50 50 0 100 100 100" fill="#000000"/></svg></g><g transform="translate(33.35,&#10;                                566.98) rotate(0, 16.676, 16.676)"><svg xmlns="http://www.w3.org/2000/svg" id="Layer_1" data-name="Layer 1" viewBox="0 0 100 100" width="33.352" height="33.352"><polygon points="100 100 50 50 0 100 100 100" fill="#000000"/></svg></g><g transform="translate(66.70,&#10;                                533.63) rotate(90, 16.676, 16.676)"><svg xmlns="http://www.w3.org/2000/svg" id="Layer_1" data-name="Layer 1" viewBox="0 0 100 100" width="33.352" height="33.352"><polygon points="100 50 50 0 0 50 100 50" fill="#000000"/><polygon points="100 100 50 50 0 100 100 100" fill="#000000"/></svg></g><g transform="translate(66.70,&#10;                                566.98) rotate(180, 16.676, 16.676)"><svg xmlns="http://www.w3.org/2000/svg" id="Layer_1" data-name="Layer 1" viewBox="0 0 100 100" width="33.352" height="33.352"><polygon points="100 100 50 50 0 100 100 100" fill="#000000"/></svg></g><g transform="translate(100.06,&#10;                                566.98) rotate(0, 16.676, 16.676)"><svg xmlns="http://www.w3.org/2000/svg" id="Layer_1" data-name="Layer 1" viewBox="0 0 100 100" width="33.352" height="33.352"><polygon points="100 100 50 50 0 100 100 100" fill="#000000"/></svg></g><g transform="translate(133.41,&#10;                                533.63) rotate(0, 16.676, 16.676)"><svg xmlns="http://www.w3.org/2000/svg" id="Layer_1" data-name="Layer 1" viewBox="0 0 100 100" width="33.352" height="33.352"><polygon points="100 50 50 0 0 50 100 50" fill="#000000"/><polygon points="100 100 50 50 0 100 100 100" fill="#000000"/></svg></g><g transform="translate(166.76,&#10;                                533.63) rotate(90, 16.676, 16.676)"><svg xmlns="http://www.w3.org/2000/svg" id="Layer_1" data-name="Layer 1" viewBox="0 0 100 100" width="33.352" height="33.352"><polygon points="100 0 50 50 0 0 100 0" fill="#000000"/><polygon points="100 100 50 50 0 100 100 100" fill="#000000"/></svg></g><g transform="translate(133.41,&#10;                                566.98) rotate(0, 16.676, 16.676)"><svg xmlns="http://www.w3.org/2000/svg" id="Layer_1" data-name="Layer 1" viewBox="0 0 100 100" width="33.352" height="33.352"><polygon points="0 94.265 100 94.265 50 5.735 0 94.265" fill="#000000"/></svg></g><g transform="translate(166.76,&#10;                                566.98) rotate(270, 16.676, 16.676)"><svg xmlns="http://www.w3.org/2000/svg" id="Layer_1" data-name="Layer 1" viewBox="0 0 100 100" width="33.352" height="33.352"><polygon points="100 100 50 50 0 100 100 100" fill="#000000"/></svg></g><g transform="translate(200.11,&#10;                                533.63) rotate(90, 16.676, 16.676)"><svg xmlns="http://www.w3.org/2000/svg" id="Layer_1" data-name="Layer 1" viewBox="0 0 100 100" width="33.352" height="33.352"><polygon points="100 50 50 0 0 50 100 50" fill="#000000"/><polygon points="100 100 50 50 0 100 100 100" fill="#000000"/></svg></g><g transform="translate(233.46,&#10;                                533.63) rotate(90, 16.676, 16.676)"><svg xmlns="http://www.w3.org/2000/svg" id="Layer_1" data-name="Layer 1" viewBox="0 0 100 100" width="33.352" height="33.352"><polygon points="100 100 50 50 0 100 100 100" fill="#000000"/></svg></g><g transform="translate(200.11,&#10;                                566.98) rotate(270, 16.676, 16.676)"><svg xmlns="http://www.w3.org/2000/svg" id="Layer_1" data-name="Layer 1" viewBox="0 0 100 100" width="33.352" height="33.352"><polygon points="100 50 50 0 0 50 100 50" fill="#000000"/><polygon points="100 100 50 50 0 100 100 100" fill="#000000"/></svg></g><g transform="translate(266.82,&#10;                                533.63) rotate(270, 16.676, 16.676)"><svg xmlns="http://www.w3.org/2000/svg" id="Layer_1" data-name="Layer 1" viewBox="0 0 100 100" width="33.352" height="33.352"><polygon points="100 50 50 0 0 50 100 50" fill="#000000"/><polygon points="100 100 50 50 0 100 100 100" fill="#000000"/></svg></g><g transform="translate(300.17,&#10;                                533.63) rotate(90, 16.676, 16.676)"><svg xmlns="http://www.w3.org/2000/svg" id="Layer_1" data-name="Layer 1" viewBox="0 0 100 100" width="33.352" height="33.352"><polygon points="100 100 50 50 0 100 100 100" fill="#000000"/></svg></g><g transform="translate(333.52,&#10;                                566.98) rotate(90, 16.676, 16.676)"><svg xmlns="http://www.w3.org/2000/svg" id="Layer_1" data-name="Layer 1" viewBox="0 0 100 100" width="33.352" height="33.352"><polygon points="100 50 50 0 0 50 100 50" fill="#000000"/><polygon points="100 100 50 50 0 100 100 100" fill="#000000"/></svg></g><g transform="translate(400.22,&#10;                                533.63) rotate(0, 16.676, 16.676)"><svg xmlns="http://www.w3.org/2000/svg" id="Layer_1" data-name="Layer 1" viewBox="0 0 100 100" width="33.352" height="33.352"><polygon points="0 94.265 100 94.265 50 5.735 0 94.265" fill="#000000"/></svg></g><g transform="translate(433.58,&#10;                                533.63) rotate(270, 16.676, 16.676)"><svg xmlns="http://www.w3.org/2000/svg" id="Layer_1" data-name="Layer 1" viewBox="0 0 100 100" width="33.352" height="33.352"><polygon points="100 0 50 50 0 0 100 0" fill="#000000"/><polygon points="100 100 50 50 0 100 100 100" fill="#000000"/></svg></g><g transform="translate(400.22,&#10;                                566.98) rotate(0, 16.676, 16.676)"><svg xmlns="http://www.w3.org/2000/svg" id="Layer_1" data-name="Layer 1" viewBox="0 0 100 100" width="33.352" height="33.352"><polygon points="100 50 50 0 0 50 100 50" fill="#000000"/><polygon points="100 100 50 50 0 100 100 100" fill="#000000"/></svg></g><g transform="translate(433.58,&#10;                                566.98) rotate(90, 16.676, 16.676)"><svg xmlns="http://www.w3.org/2000/svg" id="Layer_1" data-name="Layer 1" viewBox="0 0 100 100" width="33.352" height="33.352"><polygon points="100 0 50 50 0 0 100 0" fill="#000000"/><polygon points="100 100 50 50 0 100 100 100" fill="#000000"/></svg></g><g transform="translate(466.93,&#10;                                566.98) rotate(0, 16.676, 16.676)"><svg xmlns="http://www.w3.org/2000/svg" id="Layer_1" data-name="Layer 1" viewBox="0 0 100 100" width="33.352" height="33.352"><polygon points="0 94.265 100 94.265 50 5.735 0 94.265" fill="#000000"/></svg></g><g transform="translate(500.28,&#10;                                566.98) rotate(270, 16.676, 16.676)"><svg xmlns="http://www.w3.org/2000/svg" id="Layer_1" data-name="Layer 1" viewBox="0 0 100 100" width="33.352" height="33.352"><polygon points="100 0 50 50 0 0 100 0" fill="#000000"/><polygon points="100 100 50 50 0 100 100 100" fill="#000000"/></svg></g><g transform="translate(533.63,&#10;                                533.63) rotate(270, 16.676, 16.676)"><svg xmlns="http://www.w3.org/2000/svg" id="Layer_1" data-name="Layer 1" viewBox="0 0 100 100" width="33.352" height="33.352"><polygon points="0 94.265 100 94.265 50 5.735 0 94.265" fill="#000000"/></svg></g><g transform="translate(566.98,&#10;                                533.63) rotate(270, 16.676, 16.676)"><svg xmlns="http://www.w3.org/2000/svg" id="Layer_1" data-name="Layer 1" viewBox="0 0 100 100" width="33.352" height="33.352"><polygon points="100 0 50 50 0 0 100 0" fill="#000000"/><polygon points="100 100 50 50 0 100 100 100" fill="#000000"/></svg></g><g transform="translate(533.63,&#10;                                566.98) rotate(90, 16.676, 16.676)"><svg xmlns="http://www.w3.org/2000/svg" id="Layer_1" data-name="Layer 1" viewBox="0 0 100 100" width="33.352" height="33.352"><polygon points="100 50 50 0 0 50 100 50" fill="#000000"/><polygon points="100 100 50 50 0 100 100 100" fill="#000000"/></svg></g><g transform="translate(633.69,&#10;                                533.63) rotate(0, 16.676, 16.676)"><svg xmlns="http://www.w3.org/2000/svg" id="Layer_1" data-name="Layer 1" viewBox="0 0 100 100" width="33.352" height="33.352"><polygon points="100 0 50 50 0 0 100 0" fill="#000000"/><polygon points="100 100 50 50 0 100 100 100" fill="#000000"/></svg></g><g transform="translate(633.69,&#10;                                566.98) rotate(180, 16.676, 16.676)"><svg xmlns="http://www.w3.org/2000/svg" id="Layer_1" data-name="Layer 1" viewBox="0 0 100 100" width="33.352" height="33.352"><polygon points="100 100 50 50 0 100 100 100" fill="#000000"/></svg></g></g><g><g transform="translate(0.00,&#10;                                600.34) rotate(0, 16.676, 16.676)"><svg xmlns="http://www.w3.org/2000/svg" id="Layer_1" data-name="Layer 1" viewBox="0 0 100 100" width="33.352" height="33.352"><polygon points="0 94.265 100 94.265 50 5.735 0 94.265" fill="#000000"/></svg></g><g transform="translate(66.70,&#10;                                600.34) rotate(180, 16.676, 16.676)"><svg xmlns="http://www.w3.org/2000/svg" id="Layer_1" data-name="Layer 1" viewBox="0 0 100 100" width="33.352" height="33.352"><polygon points="100 50 50 0 0 50 100 50" fill="#000000"/><polygon points="100 100 50 50 0 100 100 100" fill="#000000"/></svg></g><g transform="translate(166.76,&#10;                                600.34) rotate(270, 16.676, 16.676)"><svg xmlns="http://www.w3.org/2000/svg" id="Layer_1" data-name="Layer 1" viewBox="0 0 100 100" width="33.352" height="33.352"><polygon points="100 0 50 50 0 0 100 0" fill="#000000"/><polygon points="100 100 50 50 0 100 100 100" fill="#000000"/></svg></g><g transform="translate(133.41,&#10;                                633.69) rotate(0, 16.676, 16.676)"><svg xmlns="http://www.w3.org/2000/svg" id="Layer_1" data-name="Layer 1" viewBox="0 0 100 100" width="33.352" height="33.352"><polygon points="100 50 50 0 0 50 100 50" fill="#000000"/><polygon points="100 100 50 50 0 100 100 100" fill="#000000"/></svg></g><g transform="translate(166.76,&#10;                                633.69) rotate(180, 16.676, 16.676)"><svg xmlns="http://www.w3.org/2000/svg" id="Layer_1" data-name="Layer 1" viewBox="0 0 100 100" width="33.352" height="33.352"><polygon points="100 0 50 50 0 0 100 0" fill="#000000"/><polygon points="100 100 50 50 0 100 100 100" fill="#000000"/></svg></g><g transform="translate(200.11,&#10;                                600.34) rotate(180, 16.676, 16.676)"><svg xmlns="http://www.w3.org/2000/svg" id="Layer_1" data-name="Layer 1" viewBox="0 0 100 100" width="33.352" height="33.352"><polygon points="100 50 50 0 0 50 100 50" fill="#000000"/><polygon points="100 100 50 50 0 100 100 100" fill="#000000"/></svg></g><g transform="translate(233.46,&#10;                                600.34) rotate(90, 16.676, 16.676)"><svg xmlns="http://www.w3.org/2000/svg" id="Layer_1" data-name="Layer 1" viewBox="0 0 100 100" width="33.352" height="33.352"><polygon points="100 0 50 50 0 0 100 0" fill="#000000"/><polygon points="100 100 50 50 0 100 100 100" fill="#000000"/></svg></g><g transform="translate(200.11,&#10;                                633.69) rotate(270, 16.676, 16.676)"><svg xmlns="http://www.w3.org/2000/svg" id="Layer_1" data-name="Layer 1" viewBox="0 0 100 100" width="33.352" height="33.352"><polygon points="0 94.265 100 94.265 50 5.735 0 94.265" fill="#000000"/></svg></g><g transform="translate(266.82,&#10;                                633.69) rotate(0, 16.676, 16.676)"><svg xmlns="http://www.w3.org/2000/svg" id="Layer_1" data-name="Layer 1" viewBox="0 0 100 100" width="33.352" height="33.352"><polygon points="0 94.265 100 94.265 50 5.735 0 94.265" fill="#000000"/></svg></g><g transform="translate(300.17,&#10;                                633.69) rotate(90, 16.676, 16.676)"><svg xmlns="http://www.w3.org/2000/svg" id="Layer_1" data-name="Layer 1" viewBox="0 0 100 100" width="33.352" height="33.352"><polygon points="100 100 50 50 0 100 100 100" fill="#000000"/></svg></g><g transform="translate(333.52,&#10;                                600.34) rotate(270, 16.676, 16.676)"><svg xmlns="http://www.w3.org/2000/svg" id="Layer_1" data-name="Layer 1" viewBox="0 0 100 100" width="33.352" height="33.352"><polygon points="100 50 50 0 0 50 100 50" fill="#000000"/><polygon points="100 100 50 50 0 100 100 100" fill="#000000"/></svg></g><g transform="translate(366.87,&#10;                                600.34) rotate(180, 16.676, 16.676)"><svg xmlns="http://www.w3.org/2000/svg" id="Layer_1" data-name="Layer 1" viewBox="0 0 100 100" width="33.352" height="33.352"><polygon points="100 100 50 50 0 100 100 100" fill="#000000"/></svg></g><g transform="translate(433.58,&#10;                                600.34) rotate(0, 16.676, 16.676)"><svg xmlns="http://www.w3.org/2000/svg" id="Layer_1" data-name="Layer 1" viewBox="0 0 100 100" width="33.352" height="33.352"><polygon points="100 0 50 50 0 0 100 0" fill="#000000"/><polygon points="100 100 50 50 0 100 100 100" fill="#000000"/></svg></g><g transform="translate(400.22,&#10;                                633.69) rotate(270, 16.676, 16.676)"><svg xmlns="http://www.w3.org/2000/svg" id="Layer_1" data-name="Layer 1" viewBox="0 0 100 100" width="33.352" height="33.352"><polygon points="100 50 50 0 0 50 100 50" fill="#000000"/><polygon points="100 100 50 50 0 100 100 100" fill="#000000"/></svg></g><g transform="translate(466.93,&#10;                                600.34) rotate(270, 16.676, 16.676)"><svg xmlns="http://www.w3.org/2000/svg" id="Layer_1" data-name="Layer 1" viewBox="0 0 100 100" width="33.352" height="33.352"><polygon points="100 50 50 0 0 50 100 50" fill="#000000"/><polygon points="100 100 50 50 0 100 100 100" fill="#000000"/></svg></g><g transform="translate(500.28,&#10;                                600.34) rotate(90, 16.676, 16.676)"><svg xmlns="http://www.w3.org/2000/svg" id="Layer_1" data-name="Layer 1" viewBox="0 0 100 100" width="33.352" height="33.352"><polygon points="100 0 50 50 0 0 100 0" fill="#000000"/><polygon points="100 100 50 50 0 100 100 100" fill="#000000"/></svg></g><g transform="translate(466.93,&#10;                                633.69) rotate(270, 16.676, 16.676)"><svg xmlns="http://www.w3.org/2000/svg" id="Layer_1" data-name="Layer 1" viewBox="0 0 100 100" width="33.352" height="33.352"><polygon points="100 50 50 0 0 50 100 50" fill="#000000"/><polygon points="100 100 50 50 0 100 100 100" fill="#000000"/></svg></g><g transform="translate(533.63,&#10;                                600.34) rotate(0, 16.676, 16.676)"><svg xmlns="http://www.w3.org/2000/svg" id="Layer_1" data-name="Layer 1" viewBox="0 0 100 100" width="33.352" height="33.352"><polygon points="100 50 50 0 0 50 100 50" fill="#000000"/><polygon points="100 100 50 50 0 100 100 100" fill="#000000"/></svg></g><g transform="translate(566.98,&#10;                                600.34) rotate(270, 16.676, 16.676)"><svg xmlns="http://www.w3.org/2000/svg" id="Layer_1" data-name="Layer 1" viewBox="0 0 100 100" width="33.352" height="33.352"><polygon points="100 100 50 50 0 100 100 100" fill="#000000"/></svg></g><g transform="translate(533.63,&#10;                                633.69) rotate(270, 16.676, 16.676)"><svg xmlns="http://www.w3.org/2000/svg" id="Layer_1" data-name="Layer 1" viewBox="0 0 100 100" width="33.352" height="33.352"><polygon points="100 100 50 50 0 100 100 100" fill="#000000"/></svg></g><g transform="translate(566.98,&#10;                                633.69) rotate(90, 16.676, 16.676)"><svg xmlns="http://www.w3.org/2000/svg" id="Layer_1" data-name="Layer 1" viewBox="0 0 100 100" width="33.352" height="33.352"><polygon points="100 100 50 50 0 100 100 100" fill="#000000"/></svg></g><g transform="translate(633.69,&#10;                                600.34) rotate(90, 16.676, 16.676)"><svg xmlns="http://www.w3.org/2000/svg" id="Layer_1" data-name="Layer 1" viewBox="0 0 100 100" width="33.352" height="33.352"><polygon points="100 50 50 0 0 50 100 50" fill="#000000"/><polygon points="100 100 50 50 0 100 100 100" fill="#000000"/></svg></g><g transform="translate(600.34,&#10;                                633.69) rotate(0, 16.676, 16.676)"><svg xmlns="http://www.w3.org/2000/svg" id="Layer_1" data-name="Layer 1" viewBox="0 0 100 100" width="33.352" height="33.352"><polygon points="100 50 50 0 0 50 100 50" fill="#000000"/><polygon points="100 100 50 50 0 100 100 100" fill="#000000"/></svg></g></g></svg>